<?xml version="1.0" encoding="UTF-8"?>
<svg xmlns="http://www.w3.org/2000/svg" xmlns:xlink="http://www.w3.org/1999/xlink"
     width="2600" height="2600" viewBox="-1300 -1300 2600 2600">
<defs>
<linearGradient x1="199.99000008333306" y1="-1.999966666833333" x2="-162.0346760581986" y2="-117.23806444459339" gradientUnits="userSpaceOnUse" id="d0">
<stop offset="0" stop-color="#FFD700" />
<stop offset="1" stop-color="#FF69B4" />
</linearGradient>
<linearGradient x1="186.41123486146478" y1="-72.46275952117625" x2="191.03184055980796" y2="59.21854348371048" gradientUnits="userSpaceOnUse" id="d1">
<stop offset="0" stop-color="#FFA07A" />
<stop offset="1" stop-color="#FFD700" />
</linearGradient>
<linearGradient x1="-96.50738110029504" y1="-175.1751277812076" x2="-132.47707219347114" y2="-149.83265779877843" gradientUnits="userSpaceOnUse" id="d2">
<stop offset="0" stop-color="#87CEFA" />
<stop offset="1" stop-color="#DA70D6" />
</linearGradient>
<linearGradient x1="-96.50738110029504" y1="-175.1751277812076" x2="-157.21679346166007" y2="123.62394530847862" gradientUnits="userSpaceOnUse" id="d3">
<stop offset="0" stop-color="#87CEFA" />
<stop offset="1" stop-color="#FFD700" />
</linearGradient>
<linearGradient x1="-162.0346760581986" y1="-117.23806444459339" x2="-183.7495607284587" y2="-78.96897449060913" gradientUnits="userSpaceOnUse" id="d4">
<stop offset="0" stop-color="#FF69B4" />
<stop offset="1" stop-color="#20B2AA" />
</linearGradient>
<linearGradient x1="-188.83274844334633" y1="-65.89531937347205" x2="199.35794425047334" y2="16.012809379530218" gradientUnits="userSpaceOnUse" id="d5">
<stop offset="0" stop-color="#20B2AA" />
<stop offset="1" stop-color="#FFA07A" />
</linearGradient>
<linearGradient x1="-199.79618388459892" y1="-9.026898977585734" x2="-157.21679346166007" y2="123.62394530847862" gradientUnits="userSpaceOnUse" id="d6">
<stop offset="0" stop-color="#FFB6C1" />
<stop offset="1" stop-color="#FFD700" />
</linearGradient>
</defs>
<rect x="-1300" y="-1300" width="2600" height="2600" fill="#ffffff" fill-opacity="1.0" />
<path d="M1000.0,-0.0 A1000,1000,0,0,0,1000.0,-0.0 L1070.0,-0.0 A1070.0,1070.0,0,0,1,1070.0,-0.0 Z" fill="#FFB6C1" fill-opacity="0.9" />
<path d="M999.9500004166653,-9.999833334166665 A1000,1000,0,0,0,975.7992567231395,-218.66826605286926 L1044.1052046937593,-233.97504467657012 A1070.0,1070.0,0,0,1,1069.9465004458318,-10.699821667558332 Z" fill="#FFD700" fill-opacity="0.9" />
<path d="M973.5638209508851,-228.4151626655132 A1000,1000,0,0,0,932.0561743073239,-362.31379760588123 L997.3001065088366,-387.67576343829296 A1070.0,1070.0,0,0,1,1041.713288417447,-244.40422405209915 Z" fill="#FFA07A" fill-opacity="0.9" />
<path d="M928.3864942962363,-371.61608846811873 A1000,1000,0,0,0,928.3864942962363,-371.61608846811873 L993.3735488969728,-397.62921466088704 A1070.0,1070.0,0,0,1,993.3735488969728,-397.62921466088704 Z" fill="#90EE90" fill-opacity="0.9" />
<path d="M924.6239764093716,-380.8812180311885 A1000,1000,0,0,0,-600.2778746162936,-799.7915186135353 L-642.2973258394342,-855.7769249164828 A1070.0,1070.0,0,0,1,989.3476547580277,-407.5429032933717 Z" fill="#87CEFA" fill-opacity="0.9" />
<path d="M-608.2456428608931,-793.7488506704995 A1000,1000,0,0,0,-662.3853609673557,-749.1632889938921 L-708.7523362350706,-801.6047192234646 A1070.0,1070.0,0,0,1,-650.8228378611557,-849.3112702174344 Z" fill="#DA70D6" fill-opacity="0.9" />
<path d="M-669.8437500053152,-742.5020879289276 A1000,1000,0,0,0,-884.1854887084484,-467.1359775883275 L-946.0784729180398,-499.83549601951046 A1070.0,1070.0,0,0,1,-716.7328125056873,-794.4772340839526 Z" fill="#FF69B4" fill-opacity="0.9" />
<path d="M-888.8125617226985,-458.2709134605144 A1000,1000,0,0,0,-944.1637422167317,-329.47659686736023 L-1010.2552041719031,-352.53995864807547 A1070.0,1070.0,0,0,1,-951.0294410432875,-490.34987740275045 Z" fill="#20B2AA" fill-opacity="0.9" />
<path d="M-947.4112454792031,-320.0186431124681 A1000,1000,0,0,0,-953.6668059153769,300.8647923821645 L-1020.4234823294533,321.9253278489161 A1070.0,1070.0,0,0,1,-1013.7300326627474,-342.4199481303409 Z" fill="#FFB6C1" fill-opacity="0.9" />
<path d="M-950.6105251925006,310.38625838338595 A1000,1000,0,0,0,995.9392550565963,90.02777481040002 L1065.655002910558,96.32971904712802 A1070.0,1070.0,0,0,1,-1017.1532619559757,332.11329647022296 Z" fill="#FFD700" fill-opacity="0.9" />
<path d="M996.7897212523667,80.0640468976511 A1000,1000,0,0,0,999.9500004166653,9.999833334167583 L1069.9465004458318,10.699821667559315 A1070.0,1070.0,0,0,1,1066.5650017400324,85.66853018048668 Z" fill="#FFA07A" fill-opacity="0.9" />
<path d="M989.9505004124986,-9.899835000824998 A990.0,990.0,0,0,0,966.0412641559082,-216.48158339234058 C386.4165056623633,-86.59263335693623,-265.2581250021048,-294.03082681985535,-663.145312505262,-735.0770670496383 A990.0,990.0,0,0,0,-802.0716464880832,-580.3284190007373 C-320.82865859523326,-232.13136760029494,395.9802001649995,-3.9599340003299996,989.9505004124986,-9.899835000824998 Z" fill="url(#d0)" fill-opacity="0.6" />
<path d="M963.8281827413763,-226.13101103885808 A990.0,990.0,0,0,0,922.7356125642507,-358.6906596298224 C369.0942450257003,-143.47626385192896,378.2430443084198,117.25271609774676,945.6076107710495,293.13179024436687 A990.0,990.0,0,0,0,985.9798625060304,89.12749706229602 C394.39194500241217,35.65099882491841,385.53127309655054,-90.45240441554324,963.8281827413763,-226.13101103885808 Z" fill="url(#d1)" fill-opacity="0.6" />
<path d="M-477.7115364464604,-867.1168825169776 A990.0,990.0,0,0,0,-594.2750958701307,-791.7936034274001 C-237.7100383480523,-316.71744137096005,-240.86527457291368,-314.3245448655178,-602.1631864322842,-785.8113621637945 A990.0,990.0,0,0,0,-655.7615073576821,-741.6716561039533 C-262.3046029430729,-296.6686624415813,-191.08461457858417,-346.84675300679106,-477.7115364464604,-867.1168825169776 Z" fill="url(#d2)" fill-opacity="0.6" />
<path d="M915.377736645278,-377.07240585087663 A990.0,990.0,0,0,0,-477.7115364464604,-867.1168825169776 C-191.08461457858417,-346.84675300679106,-311.289251054087,244.7754117107877,-778.2231276352175,611.9385292769692 A990.0,990.0,0,0,0,945.6076107710495,293.13179024436687 C378.2430443084198,117.25271609774676,366.1510946581112,-150.82896234035067,915.377736645278,-377.07240585087663 Z" fill="url(#d3)" fill-opacity="0.6" />
<path d="M-802.0716464880832,-580.3284190007373 A990.0,990.0,0,0,0,-875.3436338213639,-462.4646178124442 C-350.1374535285456,-184.98584712497768,-351.9697744421886,-181.47528173036372,-879.9244361054715,-453.6882043259093 A990.0,990.0,0,0,0,-909.5603256058705,-390.8964237285152 C-363.82413024234825,-156.3585694914061,-320.82865859523326,-232.13136760029494,-802.0716464880832,-580.3284190007373 Z" fill="url(#d4)" fill-opacity="0.6" />
<path d="M-909.5603256058705,-390.8964237285152 A990.0,990.0,0,0,0,-934.7221047945644,-326.18183089868666 C-373.8888419178258,-130.47273235947466,394.72872961593725,31.705362571469834,986.821824039843,79.26340642867459 A990.0,990.0,0,0,0,986.821824039843,79.26340642867459 C394.72872961593725,31.705362571469834,-363.82413024234825,-156.3585694914061,-909.5603256058705,-390.8964237285152 Z" fill="url(#d5)" fill-opacity="0.6" />
<path d="M-988.9911102287647,-44.683149939049386 A990.0,990.0,0,0,0,-944.1301378562231,297.8561444583429 C-377.65205514248925,119.14245778333716,-376.44176797623027,122.91295831982085,-941.1044199405757,307.2823957995521 A990.0,990.0,0,0,0,-778.2231276352175,611.9385292769692 C-311.289251054087,244.7754117107877,-395.5964440915059,-17.873259975619757,-988.9911102287647,-44.683149939049386 Z" fill="url(#d6)" fill-opacity="0.6" />
<text x="1100.0" y="0" font-size="10" text-anchor="start" dominant-baseline="middle" transform="rotate(-0.000000)" font-family="Arial">Cueva de las Güixas</text>
<text x="1100.0" y="0" font-size="10" text-anchor="start" dominant-baseline="middle" transform="rotate(-6.601892)" font-family="Arial">Cézelle</text>
<text x="1100.0" y="0" font-size="10" text-anchor="start" dominant-baseline="middle" transform="rotate(-17.223073)" font-family="Arial">Gouffre de Bexanka</text>
<text x="1100.0000000000002" y="0" font-size="10" text-anchor="start" dominant-baseline="middle" transform="rotate(-21.815320)" font-family="Arial">Gouffre de la Fage</text>
<text x="1100.0" y="0" font-size="10" text-anchor="start" dominant-baseline="middle" transform="rotate(-74.639040)" font-family="Arial">Grotte de la carrière d'Ainhoa</text>
<text x="-1100.0" y="0" font-size="10" text-anchor="end" dominant-baseline="middle" transform="rotate(50.527596)" font-family="Arial">Grottes de Sare</text>
<text x="-1100.0" y="0" font-size="10" text-anchor="end" dominant-baseline="middle" transform="rotate(37.896770)" font-family="Arial">La Brumaudière</text>
<text x="-1100.0000000000002" y="0" font-size="10" text-anchor="end" dominant-baseline="middle" transform="rotate(23.256300)" font-family="Arial">La Roche</text>
<text x="-1100.0000000000002" y="0" font-size="10" text-anchor="end" dominant-baseline="middle" transform="rotate(0.577250)" font-family="Arial">Mikelauenziloa</text>
<text x="1100.0000000000002" y="0" font-size="10" text-anchor="start" dominant-baseline="middle" transform="rotate(-276.458652)" font-family="Arial">Petexaenea (Site générique Galeries N&amp;S)</text>
<text x="1100.0000000000002" y="0" font-size="10" text-anchor="start" dominant-baseline="middle" transform="rotate(-357.417398)" font-family="Arial">Puy-Chenin</text>
</svg>