<?xml version="1.0" encoding="UTF-8"?>
<svg xmlns="http://www.w3.org/2000/svg" xmlns:xlink="http://www.w3.org/1999/xlink"
     width="2600" height="2600" viewBox="-1300 -1300 2600 2600">
<defs>
<linearGradient x1="165.63066920408383" y1="-112.10031854998161" x2="112.54624432695219" y2="-165.32798579761982" gradientUnits="userSpaceOnUse" id="d0">
<stop offset="0" stop-color="#87CEFA" />
<stop offset="1" stop-color="#87CEFA" />
</linearGradient>
<linearGradient x1="165.9018624622923" y1="-111.69857667644045" x2="-54.79403751599469" y2="-192.34763698235486" gradientUnits="userSpaceOnUse" id="d1">
<stop offset="0" stop-color="#87CEFA" />
<stop offset="1" stop-color="#DA70D6" />
</linearGradient>
<linearGradient x1="166.17208128630486" y1="-111.2961787348411" x2="-154.7745935193464" y2="-126.66816964384182" gradientUnits="userSpaceOnUse" id="d2">
<stop offset="0" stop-color="#87CEFA" />
<stop offset="1" stop-color="#FFA07A" />
</linearGradient>
<linearGradient x1="166.70958928889115" y1="-110.48942410533793" x2="-158.72515838630235" y2="-121.68123970129176" gradientUnits="userSpaceOnUse" id="d3">
<stop offset="0" stop-color="#87CEFA" />
<stop offset="1" stop-color="#90EE90" />
</linearGradient>
<linearGradient x1="194.3277897909324" y1="-47.293869739863645" x2="-196.83492796134874" y2="35.440247381341116" gradientUnits="userSpaceOnUse" id="d4">
<stop offset="0" stop-color="#87CEFA" />
<stop offset="1" stop-color="#FF69B4" />
</linearGradient>
<linearGradient x1="194.3277897909324" y1="-47.293869739863645" x2="-153.34323920923404" y2="128.39723902335137" gradientUnits="userSpaceOnUse" id="d5">
<stop offset="0" stop-color="#87CEFA" />
<stop offset="1" stop-color="#20B2AA" />
</linearGradient>
<linearGradient x1="199.45369028342915" y1="-14.77245518936929" x2="-44.34617123708631" y2="195.021581104787" gradientUnits="userSpaceOnUse" id="d6">
<stop offset="0" stop-color="#87CEFA" />
<stop offset="1" stop-color="#FFD700" />
</linearGradient>
<linearGradient x1="199.48890617767952" y1="-14.289027679760819" x2="-4.3643390190816955" y2="199.95237569212955" gradientUnits="userSpaceOnUse" id="d7">
<stop offset="0" stop-color="#87CEFA" />
<stop offset="1" stop-color="#90EE90" />
</linearGradient>
<linearGradient x1="199.67558888301878" y1="-11.386799560002403" x2="108.3050658353503" y2="168.13688683450886" gradientUnits="userSpaceOnUse" id="d8">
<stop offset="0" stop-color="#87CEFA" />
<stop offset="1" stop-color="#87CEFA" />
</linearGradient>
<linearGradient x1="199.75309974254526" y1="-9.934744246570185" x2="147.30869302024723" y2="135.27804315803272" gradientUnits="userSpaceOnUse" id="d9">
<stop offset="0" stop-color="#87CEFA" />
<stop offset="1" stop-color="#FFB6C1" />
</linearGradient>
<linearGradient x1="199.77659036837397" y1="-9.450605313254258" x2="199.55173908896288" y2="13.382952834501488" gradientUnits="userSpaceOnUse" id="d10">
<stop offset="0" stop-color="#87CEFA" />
<stop offset="1" stop-color="#20B2AA" />
</linearGradient>
<linearGradient x1="199.7989075948308" y1="-8.966410871260774" x2="199.84245795747157" y2="7.936749808089491" gradientUnits="userSpaceOnUse" id="d11">
<stop offset="0" stop-color="#87CEFA" />
<stop offset="1" stop-color="#FFD700" />
</linearGradient>
<linearGradient x1="159.05388153625225" y1="-121.25123821327281" x2="116.91320564227652" y2="-162.26922797143877" gradientUnits="userSpaceOnUse" id="d12">
<stop offset="0" stop-color="#FF69B4" />
<stop offset="1" stop-color="#87CEFA" />
</linearGradient>
<linearGradient x1="156.33339737790098" y1="-124.73920339766205" x2="116.91320564227652" y2="-162.26922797143877" gradientUnits="userSpaceOnUse" id="d13">
<stop offset="0" stop-color="#20B2AA" />
<stop offset="1" stop-color="#87CEFA" />
</linearGradient>
<linearGradient x1="156.63524879133934" y1="-124.35995672271369" x2="-196.48298250200222" y2="-37.34216901999515" gradientUnits="userSpaceOnUse" id="d14">
<stop offset="0" stop-color="#20B2AA" />
<stop offset="1" stop-color="#FF69B4" />
</linearGradient>
<linearGradient x1="156.63524879133934" y1="-124.35995672271369" x2="-154.27270668181941" y2="127.27895337826011" gradientUnits="userSpaceOnUse" id="d15">
<stop offset="0" stop-color="#20B2AA" />
<stop offset="1" stop-color="#20B2AA" />
</linearGradient>
<linearGradient x1="157.23618983206615" y1="-123.59927429841346" x2="107.89726118732273" y2="168.39887478327955" gradientUnits="userSpaceOnUse" id="d16">
<stop offset="0" stop-color="#20B2AA" />
<stop offset="1" stop-color="#87CEFA" />
</linearGradient>
<linearGradient x1="153.5364390832125" y1="-128.16614948435867" x2="145.65865715030384" y2="137.0531123220857" gradientUnits="userSpaceOnUse" id="d17">
<stop offset="0" stop-color="#FFB6C1" />
<stop offset="1" stop-color="#FFB6C1" />
</linearGradient>
<linearGradient x1="140.366799533444" y1="-142.46810726874259" x2="125.1600294869378" y2="-155.9966891277788" gradientUnits="userSpaceOnUse" id="d18">
<stop offset="0" stop-color="#FFD700" />
<stop offset="1" stop-color="#FFD700" />
</linearGradient>
<linearGradient x1="140.7116645564605" y1="-142.12750422683902" x2="-54.327714280881025" y2="-192.47986767715463" gradientUnits="userSpaceOnUse" id="d19">
<stop offset="0" stop-color="#FFD700" />
<stop offset="1" stop-color="#DA70D6" />
</linearGradient>
<linearGradient x1="141.39891314743352" y1="-141.4437957661083" x2="-196.29967439944903" y2="-38.294096551169474" gradientUnits="userSpaceOnUse" id="d20">
<stop offset="0" stop-color="#FFD700" />
<stop offset="1" stop-color="#FF69B4" />
</linearGradient>
<linearGradient x1="144.11452668139498" y1="-138.6758926396275" x2="-154.27270668181941" y2="127.27895337826011" gradientUnits="userSpaceOnUse" id="d21">
<stop offset="0" stop-color="#FFD700" />
<stop offset="1" stop-color="#20B2AA" />
</linearGradient>
<linearGradient x1="144.11452668139498" y1="-138.6758926396275" x2="-7.271334255636981" y2="199.86777553708552" gradientUnits="userSpaceOnUse" id="d22">
<stop offset="0" stop-color="#FFD700" />
<stop offset="1" stop-color="#90EE90" />
</linearGradient>
<linearGradient x1="146.44628487258808" y1="-136.21118033045886" x2="99.19069064294256" y2="173.6698214710203" gradientUnits="userSpaceOnUse" id="d23">
<stop offset="0" stop-color="#FFD700" />
<stop offset="1" stop-color="#87CEFA" />
</linearGradient>
<linearGradient x1="138.58605412677497" y1="-144.20092094563958" x2="-156.7112849776257" y2="124.26412660402595" gradientUnits="userSpaceOnUse" id="d24">
<stop offset="0" stop-color="#FFA07A" />
<stop offset="1" stop-color="#20B2AA" />
</linearGradient>
<linearGradient x1="133.4779538009463" y1="-148.94171963930202" x2="-147.96577001505534" y2="-134.55902386630098" gradientUnits="userSpaceOnUse" id="d25">
<stop offset="0" stop-color="#DA70D6" />
<stop offset="1" stop-color="#FF69B4" />
</linearGradient>
<linearGradient x1="129.36709298900854" y1="-152.52591665541044" x2="-52.459257788451" y2="-192.99747737285284" gradientUnits="userSpaceOnUse" id="d26">
<stop offset="0" stop-color="#20B2AA" />
<stop offset="1" stop-color="#DA70D6" />
</linearGradient>
<linearGradient x1="129.73636582562915" y1="-152.2119423118913" x2="-196.0160663024996" y2="-39.720293947729935" gradientUnits="userSpaceOnUse" id="d27">
<stop offset="0" stop-color="#20B2AA" />
<stop offset="1" stop-color="#FF69B4" />
</linearGradient>
<linearGradient x1="127.46224602975657" y1="-154.12130234672233" x2="-147.63922620814628" y2="-134.91722975461587" gradientUnits="userSpaceOnUse" id="d28">
<stop offset="0" stop-color="#FFB6C1" />
<stop offset="1" stop-color="#FF69B4" />
</linearGradient>
<linearGradient x1="123.5938306456537" y1="-157.24046879328958" x2="-157.3117606301358" y2="123.50307675295727" gradientUnits="userSpaceOnUse" id="d29">
<stop offset="0" stop-color="#FFA07A" />
<stop offset="1" stop-color="#20B2AA" />
</linearGradient>
<linearGradient x1="118.92009018443859" y1="-160.804266580601" x2="98.76950346981543" y2="173.90970411200783" gradientUnits="userSpaceOnUse" id="d30">
<stop offset="0" stop-color="#90EE90" />
<stop offset="1" stop-color="#87CEFA" />
</linearGradient>
<linearGradient x1="119.30945661915489" y1="-160.51558666136444" x2="113.99671603887083" y2="164.33121654863098" gradientUnits="userSpaceOnUse" id="d31">
<stop offset="0" stop-color="#90EE90" />
<stop offset="1" stop-color="#DA70D6" />
</linearGradient>
<linearGradient x1="-48.64840485032239" y1="-193.99312540788432" x2="-51.991366495466984" y2="-193.12404772563679" gradientUnits="userSpaceOnUse" id="d32">
<stop offset="0" stop-color="#87CEFA" />
<stop offset="1" stop-color="#DA70D6" />
</linearGradient>
<linearGradient x1="-48.178111755485205" y1="-194.11045707966375" x2="-151.57980771601976" y2="-130.47437255175623" gradientUnits="userSpaceOnUse" id="d33">
<stop offset="0" stop-color="#87CEFA" />
<stop offset="1" stop-color="#FFB6C1" />
</linearGradient>
<linearGradient x1="-47.23667939897897" y1="-194.34169938373515" x2="-158.1334966968404" y2="-122.44916178737348" gradientUnits="userSpaceOnUse" id="d34">
<stop offset="0" stop-color="#87CEFA" />
<stop offset="1" stop-color="#90EE90" />
</linearGradient>
<linearGradient x1="-46.765545666867396" y1="-194.455608657812" x2="-168.00552242806833" y2="-108.50872975789471" gradientUnits="userSpaceOnUse" id="d35">
<stop offset="0" stop-color="#87CEFA" />
<stop offset="1" stop-color="#DA70D6" />
</linearGradient>
<linearGradient x1="12.408644229659762" y1="-199.6146927166979" x2="-195.82123675384344" y2="-40.66993036870353" gradientUnits="userSpaceOnUse" id="d36">
<stop offset="0" stop-color="#87CEFA" />
<stop offset="1" stop-color="#FF69B4" />
</linearGradient>
<linearGradient x1="86.52934746615387" y1="-180.3127062274914" x2="-159.09095611029727" y2="121.20258942741889" gradientUnits="userSpaceOnUse" id="d37">
<stop offset="0" stop-color="#87CEFA" />
<stop offset="1" stop-color="#20B2AA" />
</linearGradient>
<linearGradient x1="86.52934746615387" y1="-180.3127062274914" x2="-49.588131061712815" y2="193.7550444706057" gradientUnits="userSpaceOnUse" id="d38">
<stop offset="0" stop-color="#87CEFA" />
<stop offset="1" stop-color="#FFB6C1" />
</linearGradient>
<linearGradient x1="86.96608852182186" y1="-180.10246929793786" x2="-8.240021350713286" y2="199.83018302583767" gradientUnits="userSpaceOnUse" id="d39">
<stop offset="0" stop-color="#87CEFA" />
<stop offset="1" stop-color="#90EE90" />
</linearGradient>
<linearGradient x1="87.40231877713303" y1="-179.8911745261018" x2="195.0886562249399" y2="44.050155644982794" gradientUnits="userSpaceOnUse" id="d40">
<stop offset="0" stop-color="#87CEFA" />
<stop offset="1" stop-color="#20B2AA" />
</linearGradient>
<linearGradient x1="-144.95368404678263" y1="-137.7985104464686" x2="-157.2390424938218" y2="-123.59564521303368" gradientUnits="userSpaceOnUse" id="d41">
<stop offset="0" stop-color="#DA70D6" />
<stop offset="1" stop-color="#90EE90" />
</linearGradient>
<linearGradient x1="-144.6192980582925" y1="-138.1494069083424" x2="-175.47333729063442" y2="-95.96409693258855" gradientUnits="userSpaceOnUse" id="d42">
<stop offset="0" stop-color="#DA70D6" />
<stop offset="1" stop-color="#FF69B4" />
</linearGradient>
<linearGradient x1="-143.94797976087224" y1="-138.84876349022167" x2="-8.240021350713286" y2="199.83018302583767" gradientUnits="userSpaceOnUse" id="d43">
<stop offset="0" stop-color="#DA70D6" />
<stop offset="1" stop-color="#90EE90" />
</linearGradient>
<linearGradient x1="-55.26003891515607" y1="-192.21427652257114" x2="98.76950346981543" y2="173.90970411200783" gradientUnits="userSpaceOnUse" id="d44">
<stop offset="0" stop-color="#DA70D6" />
<stop offset="1" stop-color="#87CEFA" />
</linearGradient>
<linearGradient x1="-55.26003891515607" y1="-192.21427652257114" x2="149.94414318121028" y2="132.35087429122902" gradientUnits="userSpaceOnUse" id="d45">
<stop offset="0" stop-color="#DA70D6" />
<stop offset="1" stop-color="#FFD700" />
</linearGradient>
<linearGradient x1="-152.8769507686895" y1="-128.95207607350758" x2="-166.91205300906796" y2="-110.18333159011888" gradientUnits="userSpaceOnUse" id="d46">
<stop offset="0" stop-color="#FFD700" />
<stop offset="1" stop-color="#87CEFA" />
</linearGradient>
<linearGradient x1="-155.08112443875706" y1="-126.2926951284624" x2="-193.35875157960928" y2="51.11157586667571" gradientUnits="userSpaceOnUse" id="d47">
<stop offset="0" stop-color="#FFA07A" />
<stop offset="1" stop-color="#20B2AA" />
</linearGradient>
<linearGradient x1="-155.08112443875706" y1="-126.2926951284624" x2="156.03062773119996" y2="125.11771740967662" gradientUnits="userSpaceOnUse" id="d48">
<stop offset="0" stop-color="#FFA07A" />
<stop offset="1" stop-color="#DA70D6" />
</linearGradient>
<linearGradient x1="-160.7665170468093" y1="-118.97111832977774" x2="-174.77098616573522" y2="-97.23735082084659" gradientUnits="userSpaceOnUse" id="d49">
<stop offset="0" stop-color="#90EE90" />
<stop offset="1" stop-color="#FF69B4" />
</linearGradient>
<linearGradient x1="-159.0195916763433" y1="-121.29620547687814" x2="-9.208514853103472" y2="199.78789566487796" gradientUnits="userSpaceOnUse" id="d50">
<stop offset="0" stop-color="#90EE90" />
<stop offset="1" stop-color="#90EE90" />
</linearGradient>
<linearGradient x1="-196.01514949549946" y1="39.72481803931897" x2="-193.84514266728615" y2="49.23475057618833" gradientUnits="userSpaceOnUse" id="d51">
<stop offset="0" stop-color="#FF69B4" />
<stop offset="1" stop-color="#20B2AA" />
</linearGradient>
<linearGradient x1="-196.39103230305378" y1="37.822776615961004" x2="-44.34617123708631" y2="195.021581104787" gradientUnits="userSpaceOnUse" id="d52">
<stop offset="0" stop-color="#FF69B4" />
<stop offset="1" stop-color="#FFD700" />
</linearGradient>
<linearGradient x1="-196.4821205826241" y1="37.346703888765816" x2="0.5435654911956616" y2="199.9992613400279" gradientUnits="userSpaceOnUse" id="d53">
<stop offset="0" stop-color="#FF69B4" />
<stop offset="1" stop-color="#87CEFA" />
</linearGradient>
<linearGradient x1="-196.7484590205041" y1="35.91718075040157" x2="195.0886562249399" y2="44.050155644982794" gradientUnits="userSpaceOnUse" id="d54">
<stop offset="0" stop-color="#FF69B4" />
<stop offset="1" stop-color="#20B2AA" />
</linearGradient>
<linearGradient x1="-196.83492796134874" y1="35.440247381341116" x2="199.84245795747157" y2="7.936749808089491" gradientUnits="userSpaceOnUse" id="d55">
<stop offset="0" stop-color="#FF69B4" />
<stop offset="1" stop-color="#FFD700" />
</linearGradient>
<linearGradient x1="-52.92684095894701" y1="192.86977343820968" x2="-46.234630650756195" y2="194.58252472559852" gradientUnits="userSpaceOnUse" id="d56">
<stop offset="0" stop-color="#20B2AA" />
<stop offset="1" stop-color="#FFD700" />
</linearGradient>
<linearGradient x1="-53.861071948791825" y1="192.61096783030573" x2="0.05885755505786613" y2="199.99999133947034" gradientUnits="userSpaceOnUse" id="d57">
<stop offset="0" stop-color="#20B2AA" />
<stop offset="1" stop-color="#87CEFA" />
</linearGradient>
<linearGradient x1="-54.32771428088128" y1="192.47986767715454" x2="154.77166994357782" y2="126.67174184827572" gradientUnits="userSpaceOnUse" id="d58">
<stop offset="0" stop-color="#20B2AA" />
<stop offset="1" stop-color="#87CEFA" />
</linearGradient>
<linearGradient x1="-128.72345461371248" y1="153.0695013133299" x2="194.76323033445328" y2="45.46739611731348" gradientUnits="userSpaceOnUse" id="d59">
<stop offset="0" stop-color="#20B2AA" />
<stop offset="1" stop-color="#20B2AA" />
</linearGradient>
<linearGradient x1="-17.551541895934985" y1="199.22836991019938" x2="119.21496040778774" y2="160.585781484444" gradientUnits="userSpaceOnUse" id="d60">
<stop offset="0" stop-color="#FFD700" />
<stop offset="1" stop-color="#20B2AA" />
</linearGradient>
<linearGradient x1="-44.34617123708631" y1="195.021581104787" x2="144.65835369683694" y2="138.10851062016715" gradientUnits="userSpaceOnUse" id="d61">
<stop offset="0" stop-color="#FFD700" />
<stop offset="1" stop-color="#FFB6C1" />
</linearGradient>
<linearGradient x1="111.94639535197126" y1="165.73474158335105" x2="149.94414318121028" y2="132.35087429122902" gradientUnits="userSpaceOnUse" id="d62">
<stop offset="0" stop-color="#87CEFA" />
<stop offset="1" stop-color="#FFD700" />
</linearGradient>
<linearGradient x1="111.54440170682676" y1="166.00556149679463" x2="151.57679629294165" y2="130.47787101868298" gradientUnits="userSpaceOnUse" id="d63">
<stop offset="0" stop-color="#87CEFA" />
<stop offset="1" stop-color="#FFA07A" />
</linearGradient>
<linearGradient x1="110.73845129401134" y1="166.54427460889752" x2="153.1860546726837" y2="128.58472947367258" gradientUnits="userSpaceOnUse" id="d64">
<stop offset="0" stop-color="#87CEFA" />
<stop offset="1" stop-color="#90EE90" />
</linearGradient>
<linearGradient x1="117.21076739929941" y1="162.05442297471345" x2="121.58596433797968" y2="158.7981526215073" gradientUnits="userSpaceOnUse" id="d65">
<stop offset="0" stop-color="#FF69B4" />
<stop offset="1" stop-color="#FFB6C1" />
</linearGradient>
<linearGradient x1="147.63611224380938" y1="134.9206372707056" x2="199.75309974254523" y2="9.934744246570935" gradientUnits="userSpaceOnUse" id="d66">
<stop offset="0" stop-color="#FFB6C1" />
<stop offset="1" stop-color="#FFB6C1" />
</linearGradient>
</defs>
<rect x="-1300" y="-1300" width="2600" height="2600" fill="#ffffff" fill-opacity="1.0" />
<path d="M1000.0,-0.0 A1000,1000,0,0,0,1000.0,-0.0 L1070.0,-0.0 A1070.0,1070.0,0,0,1,1070.0,-0.0 Z" fill="#FFB6C1" fill-opacity="0.9" />
<path d="M999.9500004166653,-9.999833334166665 A1000,1000,0,0,0,999.9500004166653,-9.999833334166665 L1069.9465004458318,-10.699821667558332 A1070.0,1070.0,0,0,1,1069.9465004458318,-10.699821667558332 Z" fill="#FFD700" fill-opacity="0.9" />
<path d="M999.8000066665777,-19.99866669333308 A1000,1000,0,0,0,999.8000066665777,-19.99866669333308 L1069.7860071332382,-21.398573361866397 A1070.0,1070.0,0,0,1,1069.7860071332382,-21.398573361866397 Z" fill="#FFA07A" fill-opacity="0.9" />
<path d="M999.5500337489875,-29.99550020249566 A1000,1000,0,0,0,999.5500337489875,-29.99550020249566 L1069.5185361114168,-32.09518521667036 A1070.0,1070.0,0,0,1,1069.5185361114168,-32.09518521667036 Z" fill="#90EE90" fill-opacity="0.9" />
<path d="M999.2001066609779,-39.98933418663416 A1000,1000,0,0,0,807.2346745973563,-590.2306160541829 L863.7411018191713,-631.5467591779757 A1070.0,1070.0,0,0,1,1069.1441141272464,-42.78858757969855 Z" fill="#87CEFA" fill-opacity="0.9" />
<path d="M801.2921054107087,-598.2733169768426 A1000,1000,0,0,0,801.2921054107087,-598.2733169768426 L857.3825527894584,-640.1524491652216 A1070.0,1070.0,0,0,1,857.3825527894584,-640.1524491652216 Z" fill="#DA70D6" fill-opacity="0.9" />
<path d="M795.2694076812613,-606.2561910663641 A1000,1000,0,0,0,793.7977856275044,-608.1817783630735 L849.3636306214297,-650.7545028484886 A1070.0,1070.0,0,0,1,850.9382662189497,-648.6941244410095 Z" fill="#FF69B4" fill-opacity="0.9" />
<path d="M787.6763796484631,-616.0892150848691 A1000,1000,0,0,0,780.153138656002,-625.5885870483802 L834.7638583619223,-669.3797881417669 A1070.0,1070.0,0,0,1,842.8137262238556,-659.21546014081 Z" fill="#20B2AA" fill-opacity="0.9" />
<path d="M773.8583497178913,-633.3587092413759 A1000,1000,0,0,0,767.6821954160625,-640.8307474217934 L821.419949095187,-685.688899741319 A1070.0,1070.0,0,0,1,828.0284341981437,-677.6938188882723 Z" fill="#FFB6C1" fill-opacity="0.9" />
<path d="M761.2356109565309,-648.475400159202 A1000,1000,0,0,0,700.1055502895118,-714.0393675798414 L749.1129388097777,-764.0221233104303 A1070.0,1070.0,0,0,1,814.522103723488,-693.8686781703461 Z" fill="#FFD700" fill-opacity="0.9" />
<path d="M692.9302706338748,-721.0046047281979 A1000,1000,0,0,0,689.4273730404119,-724.3548145091579 L737.6872891532408,-775.059651524799 A1070.0,1070.0,0,0,1,741.435389578246,-771.4749270591718 Z" fill="#FFA07A" fill-opacity="0.9" />
<path d="M682.1494745391276,-731.2127558966624 A1000,1000,0,0,0,682.1494745391276,-731.2127558966624 L729.8999377568666,-782.3976488094288 A1070.0,1070.0,0,0,1,729.8999377568666,-782.3976488094288 Z" fill="#90EE90" fill-opacity="0.9" />
<path d="M674.8033616588453,-737.9975766179193 A1000,1000,0,0,0,674.8033616588453,-737.9975766179193 L722.0395969749645,-789.6574069811737 A1070.0,1070.0,0,0,1,722.0395969749645,-789.6574069811737 Z" fill="#87CEFA" fill-opacity="0.9" />
<path d="M667.3897690047314,-744.7085981965101 A1000,1000,0,0,0,663.7722765920098,-747.9347330000529 L710.2363359534505,-800.2901643100566 A1070.0,1070.0,0,0,1,714.1070528350626,-796.8382000702659 Z" fill="#DA70D6" fill-opacity="0.9" />
<path d="M656.2598655799161,-754.5349487128018 A1000,1000,0,0,0,656.2598655799161,-754.5349487128018 L702.1980561705103,-807.352395122698 A1070.0,1070.0,0,0,1,702.1980561705103,-807.352395122698 Z" fill="#FF69B4" fill-opacity="0.9" />
<path d="M648.6818291281458,-761.0597115594566 A1000,1000,0,0,0,644.9853015363806,-764.1949756456295 L690.1342726439273,-817.6886239408236 A1070.0,1070.0,0,0,1,694.089557167116,-814.3338913686185 Z" fill="#20B2AA" fill-opacity="0.9" />
<path d="M637.3112301487829,-770.6065117336117 A1000,1000,0,0,0,635.4417623003171,-772.1487983055256 L679.9226856613394,-826.1992141869124 A1070.0,1070.0,0,0,1,681.9230162591978,-824.5489675549645 Z" fill="#FFB6C1" fill-opacity="0.9" />
<path d="M627.6886311847364,-778.4645029039102 A1000,1000,0,0,0,625.800147434689,-779.983445638894 L669.6061577551174,-834.5822868336165 A1070.0,1070.0,0,0,1,671.626835367668,-832.957018107184 Z" fill="#FFD700" fill-opacity="0.9" />
<path d="M617.9691532282685,-786.2023439664479 A1000,1000,0,0,0,610.3186545760251,-792.156007284241 L653.0409603963469,-847.606927794138 A1070.0,1070.0,0,0,1,661.2269939542473,-841.2365080440993 Z" fill="#FFA07A" fill-opacity="0.9" />
<path d="M602.3667108500936,-798.219484640434 A1000,1000,0,0,0,594.600450922193,-804.021332903005 L636.2224824867466,-860.3028262062154 A1070.0,1070.0,0,0,1,644.5323806096002,-854.0948485652644 Z" fill="#90EE90" fill-opacity="0.9" />
<path d="M586.5306418212516,-809.9270375810099 A1000,1000,0,0,0,-245.59206102968326,-969.3732715312467 L-262.7835053017611,-1037.229400538434 A1070.0,1070.0,0,0,1,627.5877867487393,-866.6219302116807 Z" fill="#87CEFA" fill-opacity="0.9" />
<path d="M-255.2733526828698,-966.8689235930831 A1000,1000,0,0,0,-728.0994994157861,-685.4714574294699 L-779.0664643748912,-733.4544594495328 A1070.0,1070.0,0,0,1,-273.1424873706707,-1034.549748244599 Z" fill="#DA70D6" fill-opacity="0.9" />
<path d="M-734.917695073812,-678.1563104973627 A1000,1000,0,0,0,-741.4572236822299,-671.0001381888379 L-793.3592293399861,-717.9701478620566 A1070.0,1070.0,0,0,1,-786.3619337289788,-725.6272522321782 Z" fill="#FF69B4" fill-opacity="0.9" />
<path d="M-748.1300406790763,-663.552139800275 A1000,1000,0,0,0,-751.3375340444725,-659.9181085073899 L-803.9311614275856,-706.1123761029072 A1070.0,1070.0,0,0,1,-800.4991435266116,-710.0007895862942 Z" fill="#20B2AA" fill-opacity="0.9" />
<path d="M-757.8990385800988,-652.3718627587812 A1000,1000,0,0,0,-757.8990385800988,-652.3718627587812 L-810.9519712807058,-698.0378931518959 A1070.0,1070.0,0,0,1,-810.9519712807058,-698.0378931518959 Z" fill="#FFB6C1" fill-opacity="0.9" />
<path d="M-764.3847538434475,-644.7603803675379 A1000,1000,0,0,0,-767.5009713448865,-641.0477821384735 L-821.2260393390286,-685.9211268881667 A1070.0,1070.0,0,0,1,-817.8916866124888,-689.8936069932656 Z" fill="#FFD700" fill-opacity="0.9" />
<path d="M-773.8729675967321,-633.3408482192091 A1000,1000,0,0,0,-778.4572592430378,-627.6976147252896 L-832.9492673900505,-671.6364477560599 A1070.0,1070.0,0,0,1,-828.0440753285034,-677.6747075945538 Z" fill="#FFA07A" fill-opacity="0.9" />
<path d="M-784.6952082359384,-619.8817872558906 A1000,1000,0,0,0,-829.0094626192979,-559.234575905016 L-887.0401250026488,-598.3809962183672 A1070.0,1070.0,0,0,1,-839.6238728124541,-663.273512363803 Z" fill="#90EE90" fill-opacity="0.9" />
<path d="M-834.5602650453397,-550.9166579505944 A1000,1000,0,0,0,-834.5602650453397,-550.9166579505944 L-892.9794835985135,-589.4808240071361 A1070.0,1070.0,0,0,1,-892.9794835985135,-589.4808240071361 Z" fill="#87CEFA" fill-opacity="0.9" />
<path d="M-840.0276121403417,-542.5436487894735 A1000,1000,0,0,0,-840.0276121403417,-542.5436487894735 L-898.8295449901657,-580.5217042047367 A1070.0,1070.0,0,0,1,-898.8295449901657,-580.5217042047367 Z" fill="#DA70D6" fill-opacity="0.9" />
<path d="M-845.4109571741502,-534.116385715592 A1000,1000,0,0,0,-975.5105943420003,219.95245014892916 L-1043.7963359459404,235.3491216593542 A1070.0,1070.0,0,0,1,-904.5897241763407,-571.5045327156835 Z" fill="#FF69B4" fill-opacity="0.9" />
<path d="M-973.2623313758139,229.69639597720192 A1000,1000,0,0,0,-257.61584914090724,966.2474187657161 L-275.6489585807708,1033.8847380793163 A1070.0,1070.0,0,0,1,-1041.390694572121,245.77514369560606 Z" fill="#20B2AA" fill-opacity="0.9" />
<path d="M-247.94065530856406,968.7752223530285 A1000,1000,0,0,0,-245.59206102968437,969.3732715312465 L-262.7835053017623,1037.2294005384338 A1070.0,1070.0,0,0,1,-265.29650118016355,1036.5894879177406 Z" fill="#FFB6C1" fill-opacity="0.9" />
<path d="M-235.88621037505442,971.7806829500654 A1000,1000,0,0,0,-82.92831223020661,996.555515277824 L-88.73329408632108,1066.3144013472718 A1070.0,1070.0,0,0,1,-252.39824510130825,1039.8053307565701 Z" fill="#FFD700" fill-opacity="0.9" />
<path d="M-72.95877678812583,997.334957218276 A1000,1000,0,0,0,-70.54148071394808,997.5088468272768 L-75.47938436392444,1067.3344661051863 A1070.0,1070.0,0,0,1,-78.06589116329465,1067.1484042235554 Z" fill="#FFA07A" fill-opacity="0.9" />
<path d="M-60.56303145167522,998.1643748508476 A1000,1000,0,0,0,-12.128957838034806,999.9264414854541 L-12.977984886697243,1069.921292389436 A1070.0,1070.0,0,0,1,-64.80244365329249,1068.035881090407 Z" fill="#90EE90" fill-opacity="0.9" />
<path d="M-2.1292536339159356,999.9977331369118 A1000,1000,0,0,0,561.7386573674012,827.3147410865283 L601.0603633831192,885.2267729625854 A1070.0,1070.0,0,0,1,-2.278301388290051,1069.9975744564958 Z" fill="#87CEFA" fill-opacity="0.9" />
<path d="M569.9835801943541,821.6560827431549 A1000,1000,0,0,0,575.9424189771938,817.490262952837 L616.2583883055975,874.7145813595357 A1070.0,1070.0,0,0,1,609.8824308079589,879.1720085351758 Z" fill="#DA70D6" fill-opacity="0.9" />
<path d="M584.0883884780525,811.6900605804606 A1000,1000,0,0,0,588.0158432937939,808.8494099864871 L629.1769523243595,865.4688686855412 A1070.0,1070.0,0,0,1,624.9745756715162,868.5083648210929 Z" fill="#FF69B4" fill-opacity="0.9" />
<path d="M596.0748020389387,802.92890742222 A1000,1000,0,0,0,596.0748020389387,802.92890742222 L637.8000381816645,859.1339309417755 A1070.0,1070.0,0,0,1,637.8000381816645,859.1339309417755 Z" fill="#20B2AA" fill-opacity="0.9" />
<path d="M604.0741538006071,796.9281126363159 A1000,1000,0,0,0,741.4417366257405,671.0172510371145 L793.3426581895424,717.9884586097126 A1070.0,1070.0,0,0,1,646.3593445666496,852.713080520858 Z" fill="#FFB6C1" fill-opacity="0.9" />
<path d="M748.114725522564,663.5694066609 A1000,1000,0,0,0,749.7207159060514,661.7543714561451 L802.2011660194751,708.0771774580753 A1070.0,1070.0,0,0,1,800.4827563091435,710.0192651271631 Z" fill="#FFD700" fill-opacity="0.9" />
<path d="M756.3006636053562,654.22420180707 A1000,1000,0,0,0,757.8839814647083,652.3893550934149 L810.9358601672379,698.056609949954 A1070.0,1070.0,0,0,1,809.2417100577312,700.019895933565 Z" fill="#FFA07A" fill-opacity="0.9" />
<path d="M764.3698724013375,644.7780223962067 A1000,1000,0,0,0,765.9302733634185,642.9236473683629 L819.5453924988578,687.9283026841484 A1070.0,1070.0,0,0,1,817.8757634694311,689.9124839639412 Z" fill="#90EE90" fill-opacity="0.9" />
<path d="M772.3211064891649,635.2323263746517 A1000,1000,0,0,0,773.8583497178892,633.3587092413786 L828.0284341981414,677.6938188882751 A1070.0,1070.0,0,0,1,826.3835839434065,679.6985892208774 Z" fill="#87CEFA" fill-opacity="0.9" />
<path d="M780.1531386559998,625.588587048383 A1000,1000,0,0,0,781.6669868895027,623.696016988313 L836.383675971768,667.3547381774949 A1070.0,1070.0,0,0,1,834.7638583619198,669.3797881417698 Z" fill="#DA70D6" fill-opacity="0.9" />
<path d="M787.8647600869183,615.8482928556209 A1000,1000,0,0,0,787.8647600869183,615.8482928556209 L843.0152932930026,658.9576733555144 A1070.0,1070.0,0,0,1,843.0152932930026,658.9576733555144 Z" fill="#FF69B4" fill-opacity="0.9" />
<path d="M793.983747464877,607.9389844068486 A1000,1000,0,0,0,997.9179358991272,64.49645890144178 L1067.7721914120661,69.01121102454272 A1070.0,1070.0,0,0,1,849.5626097874184,650.494713315328 Z" fill="#20B2AA" fill-opacity="0.9" />
<path d="M998.5129942577884,54.514221065203486 A1000,1000,0,0,0,998.7654987127262,49.673721232854675 L1068.679083622617,53.150881719154505 A1070.0,1070.0,0,0,1,1068.4089038558336,58.33021653976773 Z" fill="#FFB6C1" fill-opacity="0.9" />
<path d="M999.2122897873579,39.68374904044745 A1000,1000,0,0,0,999.4744029774309,32.417862250738466 L1069.4376111858512,34.687112608290164 A1070.0,1070.0,0,0,1,1069.157150072473,42.46161147327878 Z" fill="#FFD700" fill-opacity="0.9" />
<path d="M999.7486028932858,22.421663919593495 A1000,1000,0,0,0,999.7486028932858,22.421663919593495 L1069.7310050958158,23.991180393965042 A1070.0,1070.0,0,0,1,1069.7310050958158,23.991180393965042 Z" fill="#FFA07A" fill-opacity="0.9" />
<path d="M999.9228287819723,12.423223440741227 A1000,1000,0,0,0,999.9500004166653,9.999833334171136 L1069.9465004458318,10.699821667563116 A1070.0,1070.0,0,0,1,1069.9174267967103,13.292849081593113 Z" fill="#90EE90" fill-opacity="0.9" />
<path d="M819.871812560215,-554.896576822409 A990.0,990.0,0,0,0,799.1623278513829,-584.328309893641 C319.66493114055316,-233.7313239574564,231.4881471717075,-321.29307138344876,578.7203679292687,-803.2326784586219 A990.0,990.0,0,0,0,557.1039094184133,-818.3735296982181 C222.84156376736533,-327.3494118792873,327.948725024086,-221.9586307289636,819.871812560215,-554.896576822409 Z" fill="url(#d0)" fill-opacity="0.6" />
<path d="M821.2142191883469,-552.9079545483802 A990.0,990.0,0,0,0,819.871812560215,-554.896576822409 C327.948725024086,-221.9586307289636,-107.56887427614443,-381.1101380007662,-268.92218569036106,-952.7753450019154 A990.0,990.0,0,0,0,-271.2304857041737,-952.1208030626566 C-108.49219428166948,-380.84832122506265,328.4856876753388,-221.16318181935208,821.2142191883469,-552.9079545483802 Z" fill="url(#d1)" fill-opacity="0.6" />
<path d="M822.551802367209,-550.9160847374634 A990.0,990.0,0,0,0,821.2142191883469,-552.9079545483802 C328.4856876753388,-221.16318181935208,-306.45369516830596,-250.8029758948068,-766.1342379207648,-627.007439737017 A990.0,990.0,0,0,0,-766.1342379207648,-627.007439737017 C-306.45369516830596,-250.8029758948068,329.0207209468836,-220.36643389498536,822.551802367209,-550.9160847374634 Z" fill="url(#d2)" fill-opacity="0.6" />
<path d="M825.2124669800112,-546.9226493214228 A990.0,990.0,0,0,0,822.551802367209,-550.9160847374634 C329.0207209468836,-220.36643389498536,-313.104323459744,-242.4493403389995,-782.76080864936,-606.1233508474987 A990.0,990.0,0,0,0,-785.6895340121968,-602.3221365213942 C-314.27581360487875,-240.92885460855769,330.0849867920045,-218.76905972856912,825.2124669800112,-546.9226493214228 Z" fill="url(#d3)" fill-opacity="0.6" />
<path d="M961.9225594651153,-234.10465521232504 A990.0,990.0,0,0,0,825.2124669800112,-546.9226493214228 C330.0849867920045,-218.76905972856912,-389.03630535396445,-73.9374946595904,-972.590763384911,-184.84373664897598 A990.0,990.0,0,0,0,-974.3328934086762,175.42922453763853 C-389.7331573634705,70.17168981505542,384.76902378604615,-93.64186208493003,961.9225594651153,-234.10465521232504 Z" fill="url(#d4)" fill-opacity="0.6" />
<path d="M987.2957669029743,-73.12365318737798 A990.0,990.0,0,0,0,961.9225594651153,-234.10465521232504 C384.76902378604615,-93.64186208493003,-303.61961363428344,254.22653326623572,-759.0490340857085,635.5663331655893 A990.0,990.0,0,0,0,-639.0155313633551,756.1475720230866 C-255.60621254534203,302.45902880923467,394.91830676118974,-29.249461274951194,987.2957669029743,-73.12365318737798 Z" fill="url(#d5)" fill-opacity="0.6" />
<path d="M987.4700855795137,-70.73068701481606 A990.0,990.0,0,0,0,987.2957669029743,-73.12365318737798 C394.91830676118974,-29.249461274951194,-87.8054190494309,386.1427305874783,-219.51354762357724,965.3568264686957 A990.0,990.0,0,0,0,-219.51354762357724,965.3568264686957 C-87.8054190494309,386.1427305874783,394.9880342318055,-28.292274805926425,987.4700855795137,-70.73068701481606 Z" fill="url(#d6)" fill-opacity="0.6" />
<path d="M988.3941649709429,-56.36465782201189 A990.0,990.0,0,0,0,987.4700855795137,-70.73068701481606 C394.9880342318055,-28.292274805926425,-8.641391257781757,395.9057038704166,-21.603478144454392,989.7642596760413 A990.0,990.0,0,0,0,-12.007668259654457,989.9271770705996 C-4.803067303861783,395.97087082823987,395.3576659883772,-22.545863128804758,988.3941649709429,-56.36465782201189 Z" fill="url(#d7)" fill-opacity="0.6" />
<path d="M988.777843725599,-49.17698402052241 A990.0,990.0,0,0,0,988.3941649709429,-56.36465782201189 C395.3576659883772,-22.545863128804758,214.44403035399364,332.91103593232754,536.1100758849841,832.2775898308188 A990.0,990.0,0,0,0,548.1553339053561,824.3941593140428 C219.26213356214245,329.75766372561714,395.51113749023966,-19.670793608208967,988.777843725599,-49.17698402052241 Z" fill="url(#d8)" fill-opacity="0.6" />
<path d="M988.8941223234511,-46.78049630060857 A990.0,990.0,0,0,0,988.777843725599,-49.17698402052241 C395.51113749023966,-19.670793608208967,291.6712121800895,267.8505254529048,729.1780304502238,669.6263136322619 A990.0,990.0,0,0,0,730.7987556068565,667.8571544899927 C292.3195022427426,267.1428617959971,395.5576489293805,-18.71219852024343,988.8941223234511,-46.78049630060857 Z" fill="url(#d9)" fill-opacity="0.6" />
<path d="M989.0045925944125,-44.38373381274083 A990.0,990.0,0,0,0,988.8941223234511,-46.78049630060857 C395.5576489293805,-18.71219852024343,395.1124433961465,26.49824661231295,987.7811084903661,66.24561653078237 A990.0,990.0,0,0,0,987.938756540136,63.85149431242737 C395.1755026160544,25.54059772497095,395.60183703776505,-17.75349352509633,989.0045925944125,-44.38373381274083 Z" fill="url(#d10)" fill-opacity="0.6" />
<path d="M989.2081055943681,-39.58944084476782 A990.0,990.0,0,0,0,989.0045925944125,-44.38373381274083 C395.60183703776505,-17.75349352509633,395.6880667557937,15.714764620017192,989.2201668894843,39.28691155004298 A990.0,990.0,0,0,0,989.4796589476566,32.09368362823108 C395.7918635790627,12.837473451292432,395.68324223774727,-15.835776337907129,989.2081055943681,-39.58944084476782 Z" fill="url(#d11)" fill-opacity="0.6" />
<path d="M787.3167136044488,-600.1936291557005 A990.0,990.0,0,0,0,785.8598077712293,-602.0999605794428 C314.3439231084917,-240.83998423177715,231.4881471717075,-321.29307138344876,578.7203679292687,-803.2326784586219 A990.0,990.0,0,0,0,578.7203679292687,-803.2326784586219 C231.4881471717075,-321.29307138344876,314.9266854417795,-240.0774516622802,787.3167136044488,-600.1936291557005 Z" fill="url(#d12)" fill-opacity="0.6" />
<path d="M773.8503170206099,-617.4590568184271 A990.0,990.0,0,0,0,772.3516072694421,-619.3327011778964 C308.94064290777686,-247.7330804711586,232.26613416121563,-320.73110688208,580.6653354030391,-801.8277672051998 A990.0,990.0,0,0,0,578.7203679292687,-803.2326784586219 C231.4881471717075,-321.29307138344876,309.54012680824394,-246.98362272737086,773.8503170206099,-617.4590568184271 Z" fill="url(#d13)" fill-opacity="0.6" />
<path d="M775.3444815171298,-615.5817857774327 A990.0,990.0,0,0,0,773.8503170206099,-617.4590568184271 C309.54012680824394,-246.98362272737086,-388.67335531090913,-75.82231117131555,-971.6833882772728,-189.55577792828888 A990.0,990.0,0,0,0,-972.590763384911,-184.84373664897598 C-389.03630535396445,-73.9374946595904,310.1377926068519,-246.2327143109731,775.3444815171298,-615.5817857774327 Z" fill="url(#d14)" fill-opacity="0.6" />
<path d="M778.3191396687274,-611.8164077771467 A990.0,990.0,0,0,0,775.3444815171298,-615.5817857774327 C310.1377926068519,-246.2327143109731,-305.4599592300024,252.01232768895503,-763.649898075006,630.0308192223875 A990.0,990.0,0,0,0,-759.0490340857085,635.5663331655893 C-303.61961363428344,254.22653326623572,311.327655867491,-244.72656311085868,778.3191396687274,-611.8164077771467 Z" fill="url(#d15)" fill-opacity="0.6" />
<path d="M779.7996158519785,-609.9283229340205 A990.0,990.0,0,0,0,778.3191396687274,-611.8164077771467 C311.327655867491,-244.72656311085868,213.636577150899,333.42977207089353,534.0914428772475,833.5744301772338 A990.0,990.0,0,0,0,536.1100758849841,832.2775898308188 C214.44403035399364,332.91103593232754,311.9198463407914,-243.97132917360818,779.7996158519785,-609.9283229340205 Z" fill="url(#d16)" fill-opacity="0.6" />
<path d="M766.1197662207124,-627.0251221489622 A990.0,990.0,0,0,0,760.0053734619019,-634.4224399475754 C304.00214938476074,-253.7689759790302,288.4041411576016,271.3651623977297,721.010352894004,678.4129059943242 A990.0,990.0,0,0,0,729.1780304502238,669.6263136322619 C291.6712121800895,267.8505254529048,306.447906488285,-250.81004885958487,766.1197662207124,-627.0251221489622 Z" fill="url(#d17)" fill-opacity="0.6" />
<path d="M694.8156576905479,-705.2171309802758 A990.0,990.0,0,0,0,693.1044947866167,-706.898973904043 C277.24179791464667,-282.75958956161725,248.56469794915563,-308.27194314994847,621.411744872889,-770.6798578748711 A990.0,990.0,0,0,0,619.5421459603422,-772.183611182505 C247.81685838413688,-308.87344447300205,277.9262630762192,-282.0868523921103,694.8156576905479,-705.2171309802758 Z" fill="url(#d18)" fill-opacity="0.6" />
<path d="M696.5227395544795,-703.5311459228532 A990.0,990.0,0,0,0,694.8156576905479,-705.2171309802758 C277.9262630762192,-282.0868523921103,-104.7951450987144,-381.88215140765533,-261.987862746786,-954.7053785191383 A990.0,990.0,0,0,0,-268.92218569036106,-952.7753450019154 C-107.56887427614443,-381.1101380007662,278.6090958217918,-281.4124583691413,696.5227395544795,-703.5311459228532 Z" fill="url(#d19)" fill-opacity="0.6" />
<path d="M699.9246200797959,-700.1467890422362 A990.0,990.0,0,0,0,696.5227395544795,-703.5311459228532 C278.6090958217918,-281.4124583691413,-388.1118112789493,-78.64618201650528,-970.2795281973731,-196.61545504126317 A990.0,990.0,0,0,0,-971.6833882772728,-189.55577792828888 C-388.67335531090913,-75.82231117131555,279.9698480319184,-280.05871561689446,699.9246200797959,-700.1467890422362 Z" fill="url(#d20)" fill-opacity="0.6" />
<path d="M713.3669070729051,-686.4456685661561 A990.0,990.0,0,0,0,699.9246200797959,-700.1467890422362 C279.9698480319184,-280.05871561689446,-310.2883442556989,246.04297067597136,-775.7208606392472,615.1074266899284 A990.0,990.0,0,0,0,-763.649898075006,630.0308192223875 C-305.4599592300024,252.01232768895503,285.34676282916206,-274.57826742646245,713.3669070729051,-686.4456685661561 Z" fill="url(#d21)" fill-opacity="0.6" />
<path d="M724.909110119311,-674.2453426357713 A990.0,990.0,0,0,0,713.3669070729051,-686.4456685661561 C285.34676282916206,-274.57826742646245,-14.397241826161224,395.7381955634294,-35.99310456540306,989.3454889085733 A990.0,990.0,0,0,0,-21.603478144454392,989.7642596760413 C-8.641391257781757,395.9057038704166,289.9636440477244,-269.6981370543085,724.909110119311,-674.2453426357713 Z" fill="url(#d22)" fill-opacity="0.6" />
<path d="M753.6232548469656,-641.99064615761 A990.0,990.0,0,0,0,724.909110119311,-674.2453426357713 C289.9636440477244,-269.6981370543085,196.39756747302627,343.8662465126202,490.99391868256566,859.6656162815505 A990.0,990.0,0,0,0,534.0914428772475,833.5744301772338 C213.636577150899,333.42977207089353,301.4493019387862,-256.796258463044,753.6232548469656,-641.99064615761 Z" fill="url(#d23)" fill-opacity="0.6" />
<path d="M686.0009679275361,-713.794558680916 A990.0,990.0,0,0,0,682.5330993100077,-717.1112663640664 C273.0132397240031,-286.8445065456266,-311.47728604766894,244.5360919708554,-778.6932151191722,611.3402299271385 A990.0,990.0,0,0,0,-775.7208606392472,615.1074266899284 C-310.2883442556989,246.04297067597136,274.4003871710144,-285.5178234723664,686.0009679275361,-713.794558680916 Z" fill="url(#d24)" fill-opacity="0.6" />
<path d="M660.7158713146841,-737.2615122145451 A990.0,990.0,0,0,0,657.1345538260897,-740.4553856700524 C262.8538215304359,-296.18215426802095,-292.3256678921297,-267.13611491413945,-730.8141697303241,-667.8402872853486 A990.0,990.0,0,0,0,-732.4305615745238,-666.0671681381898 C-292.97222462980955,-266.4268672552759,264.2863485258737,-294.90460488581806,660.7158713146841,-737.2615122145451 Z" fill="url(#d25)" fill-opacity="0.6" />
<path d="M640.3671102955923,-755.0032874442817 A990.0,990.0,0,0,0,638.5354485210167,-756.5530258891731 C255.4141794084067,-302.62121035566923,-102.94290566102464,-382.3856144967608,-257.3572641525616,-955.964036241902 A990.0,990.0,0,0,0,-259.6733260528324,-955.3375129956215 C-103.86933042113297,-382.1350051982486,256.1468441182369,-302.0013149777127,640.3671102955923,-755.0032874442817 Z" fill="url(#d26)" fill-opacity="0.6" />
<path d="M642.1950108368643,-753.449114443862 A990.0,990.0,0,0,0,640.3671102955923,-755.0032874442817 C256.1468441182369,-302.0013149777127,-387.72604877261006,-80.526462130033,-969.315121931525,-201.3161553250825 A990.0,990.0,0,0,0,-970.2795281973731,-196.61545504126317 C-388.1118112789493,-78.64618201650528,256.87800433474575,-301.3796457775448,642.1950108368643,-753.449114443862 Z" fill="url(#d27)" fill-opacity="0.6" />
<path d="M630.9381178472951,-762.9004466162756 A990.0,990.0,0,0,0,629.0873446773139,-764.4273103224704 C251.63493787092557,-305.77092412898816,-291.02740724922955,-268.54989895695564,-727.5685181230739,-671.374747392389 A990.0,990.0,0,0,0,-730.8141697303241,-667.8402872853486 C-292.3256678921297,-267.13611491413945,252.37524713891804,-305.16017864651025,630.9381178472951,-762.9004466162756 Z" fill="url(#d28)" fill-opacity="0.6" />
<path d="M611.7894616959858,-778.3403205267833 A990.0,990.0,0,0,0,604.2154680302648,-784.2344472113987 C241.68618721210592,-313.6937788845595,-314.41756399609267,240.74383782511023,-786.0439099902317,601.8595945627756 A990.0,990.0,0,0,0,-778.6932151191722,611.3402299271385 C-311.47728604766894,244.5360919708554,244.71578467839433,-311.33612821071335,611.7894616959858,-778.3403205267833 Z" fill="url(#d29)" fill-opacity="0.6" />
<path d="M590.5818102648167,-794.5521539737539 A990.0,990.0,0,0,0,588.654446412971,-795.981119573975 C235.4617785651884,-318.39244782959,195.56361687023457,344.34121414177554,488.9090421755864,860.8530353544388 A990.0,990.0,0,0,0,488.9090421755864,860.8530353544388 C195.56361687023457,344.34121414177554,236.23272410592668,-317.8208615895016,590.5818102648167,-794.5521539737539 Z" fill="url(#d30)" fill-opacity="0.6" />
<path d="M596.3430437415926,-790.2372897940296 A990.0,990.0,0,0,0,590.5818102648167,-794.5521539737539 C236.23272410592668,-317.8208615895016,225.71349775696422,325.37580876628937,564.2837443924105,813.4395219157234 A990.0,990.0,0,0,0,570.1829947874219,809.3153603233086 C228.07319791496877,323.7261441293235,238.53721749663706,-316.09491591761184,596.3430437415926,-790.2372897940296 Z" fill="url(#d31)" fill-opacity="0.6" />
<path d="M-240.80960400909586,-960.2659707690274 A990.0,990.0,0,0,0,-243.13614041938644,-959.6795388159343 C-97.25445616775458,-383.8718155263737,-101.08824766241645,-382.88009374286094,-252.72061915604112,-957.2002343571522 A990.0,990.0,0,0,0,-257.3572641525616,-955.964036241902 C-102.94290566102464,-382.3856144967608,-96.32384160363836,-384.106388307611,-240.80960400909586,-960.2659707690274 Z" fill="url(#d32)" fill-opacity="0.6" />
<path d="M-238.48165318965175,-960.8467625443355 A990.0,990.0,0,0,0,-240.80960400909586,-960.2659707690274 C-96.32384160363836,-384.106388307611,-300.12801927771915,-258.33925765247733,-750.3200481942978,-645.8481441311933 A990.0,990.0,0,0,0,-750.3200481942978,-645.8481441311933 C-300.12801927771915,-258.33925765247733,-95.3926612758607,-384.33870501773424,-238.48165318965175,-960.8467625443355 Z" fill="url(#d33)" fill-opacity="0.6" />
<path d="M-233.8215630249459,-961.9914119494889 A990.0,990.0,0,0,0,-238.48165318965175,-960.8467625443355 C-95.3926612758607,-384.33870501773424,-311.33330413776724,-244.7193775218067,-778.333260344418,-611.7984438045168 A990.0,990.0,0,0,0,-782.76080864936,-606.1233508474987 C-313.104323459744,-242.4493403389995,-93.52862520997837,-384.7965647797956,-233.8215630249459,-961.9914119494889 Z" fill="url(#d34)" fill-opacity="0.6" />
<path d="M-231.4894510509936,-962.5552628561695 A990.0,990.0,0,0,0,-233.8215630249459,-961.9914119494889 C-93.52862520997837,-384.7965647797956,-332.65093440757533,-214.84728492063155,-831.6273360189383,-537.1182123015789 A990.0,990.0,0,0,0,-831.6273360189383,-537.1182123015789 C-332.65093440757533,-214.84728492063155,-92.59578042039745,-385.0221051424678,-231.4894510509936,-962.5552628561695 Z" fill="url(#d35)" fill-opacity="0.6" />
<path d="M61.42278893681583,-988.0927289476547 A990.0,990.0,0,0,0,-231.4894510509936,-962.5552628561695 C-92.59578042039745,-385.0221051424678,-347.43720783545615,-190.00891192652534,-868.5930195886403,-475.0222798163133 A990.0,990.0,0,0,0,-969.315121931525,-201.3161553250825 C-387.72604877261006,-80.526462130033,24.569115574726332,-395.2370915790619,61.42278893681583,-988.0927289476547 Z" fill="url(#d36)" fill-opacity="0.6" />
<path d="M428.3202699574616,-892.5478958260824 A990.0,990.0,0,0,0,61.42278893681583,-988.0927289476547 C24.569115574726332,-395.2370915790619,-382.85032812762637,101.2009202160179,-957.1258203190658,253.00230054004476 A990.0,990.0,0,0,0,-787.5002327459715,599.9528176657235 C-315.0000930983886,239.98112706628942,171.32810798298465,-357.01915833043296,428.3202699574616,-892.5478958260824 Z" fill="url(#d37)" fill-opacity="0.6" />
<path d="M430.4821381830182,-891.5072230247923 A990.0,990.0,0,0,0,428.3202699574616,-892.5478958260824 C171.32810798298465,-357.01915833043296,-98.18449950219139,383.6349880517993,-245.46124875547844,959.0874701294982 A990.0,990.0,0,0,0,-243.13614041938752,959.679538815934 C-97.25445616775501,383.87181552637367,172.1928552732073,-356.60288920991695,430.4821381830182,-891.5072230247923 Z" fill="url(#d38)" fill-opacity="0.6" />
<path d="M432.64147794680855,-890.4613139042038 A990.0,990.0,0,0,0,430.4821381830182,-891.5072230247923 C172.1928552732073,-356.60288920991695,-16.31524227441231,395.6637623911586,-40.78810568603077,989.1594059778965 A990.0,990.0,0,0,0,-35.99310456540306,989.3454889085733 C-14.397241826161224,395.7381955634294,173.05659117872344,-356.18452556168154,432.64147794680855,-890.4613139042038 Z" fill="url(#d39)" fill-opacity="0.6" />
<path d="M557.1039094184133,-818.3735296982181 A990.0,990.0,0,0,0,432.64147794680855,-890.4613139042038 C173.05659117872344,-356.18452556168154,386.27553932538103,87.21930817706594,965.6888483134526,218.04827044266483 A990.0,990.0,0,0,0,987.7811084903661,66.24561653078237 C395.1124433961465,26.49824661231295,222.84156376736533,-327.3494118792873,557.1039094184133,-818.3735296982181 Z" fill="url(#d40)" fill-opacity="0.6" />
<path d="M-717.520736031574,-682.1026267100195 A990.0,990.0,0,0,0,-720.8185044216283,-678.6167428551752 C-288.3274017686513,-271.4466971420701,-310.73930246143163,-245.4731877533327,-776.848256153579,-613.6829693833317 A990.0,990.0,0,0,0,-778.333260344418,-611.7984438045168 C-311.33330413776724,-244.7193775218067,-287.0082944126296,-272.8410506840078,-717.520736031574,-682.1026267100195 Z" fill="url(#d41)" fill-opacity="0.6" />
<path d="M-715.8655253885478,-683.8395641962948 A990.0,990.0,0,0,0,-717.520736031574,-682.1026267100195 C-287.0082944126296,-272.8410506840078,-346.5121405172796,-191.6907313203565,-866.2803512931989,-479.2268283008912 A990.0,990.0,0,0,0,-868.5930195886403,-475.0222798163133 C-347.43720783545615,-190.00891192652534,-286.3462101554191,-273.53582567851794,-715.8655253885478,-683.8395641962948 Z" fill="url(#d42)" fill-opacity="0.6" />
<path d="M-712.5424998163176,-687.3013792765973 A990.0,990.0,0,0,0,-715.8655253885478,-683.8395641962948 C-286.3462101554191,-273.53582567851794,-18.232859409144876,395.58003341645843,-45.582148522862184,988.950083541146 A990.0,990.0,0,0,0,-40.78810568603077,989.1594059778965 C-16.31524227441231,395.6637623911586,-285.01699992652703,-274.92055171063896,-712.5424998163176,-687.3013792765973 Z" fill="url(#d43)" fill-opacity="0.6" />
<path d="M-273.53719263002256,-951.4606687867271 A990.0,990.0,0,0,0,-712.5424998163176,-687.3013792765973 C-285.01699992652703,-274.92055171063896,2.0359750646463843,395.9947661340187,5.08993766161596,989.9869153350467 A990.0,990.0,0,0,0,488.9090421755864,860.8530353544388 C195.56361687023457,344.34121414177554,-109.41487705200903,-380.58426751469085,-273.53719263002256,-951.4606687867271 Z" fill="url(#d44)" fill-opacity="0.6" />
<path d="M-271.2304857041737,-952.1208030626566 A990.0,990.0,0,0,0,-273.53719263002256,-951.4606687867271 C-109.41487705200903,-380.58426751469085,296.88940349879636,262.0547310966335,742.2235087469909,655.1368277415837 A990.0,990.0,0,0,0,742.2235087469909,655.1368277415837 C296.88940349879636,262.0547310966335,-108.49219428166948,-380.84832122506265,-271.2304857041737,-952.1208030626566 Z" fill="url(#d45)" fill-opacity="0.6" />
<path d="M-756.740906305013,-638.3127765638625 A990.0,990.0,0,0,0,-759.8259616314376,-634.6373043170887 C-303.93038465257507,-253.8549217268355,-330.48586495795456,-218.1629965484354,-826.2146623948863,-545.4074913710884 A990.0,990.0,0,0,0,-826.2146623948863,-545.4074913710884 C-330.48586495795456,-218.1629965484354,-302.69636252200524,-255.325110625545,-756.740906305013,-638.3127765638625 Z" fill="url(#d46)" fill-opacity="0.6" />
<path d="M-767.6515659718474,-625.1488408858888 A990.0,990.0,0,0,0,-770.6726866506074,-621.4206385780366 C-308.26907466024295,-248.56825543121465,-383.57599691573375,98.41470718394193,-958.9399922893343,246.0367679598548 A990.0,990.0,0,0,0,-957.1258203190658,253.00230054004476 C-382.85032812762637,101.2009202160179,-307.06062638873897,-250.05953635435554,-767.6515659718474,-625.1488408858888 Z" fill="url(#d47)" fill-opacity="0.6" />
<path d="M-766.1342379207648,-627.007439737017 A990.0,990.0,0,0,0,-767.6515659718474,-625.1488408858888 C-307.06062638873897,-250.05953635435554,308.94064290777595,247.73308047115972,772.3516072694398,619.3327011778993 A990.0,990.0,0,0,0,773.8503170206077,617.4590568184299 C309.5401268082431,246.98362272737197,-306.45369516830596,-250.8029758948068,-766.1342379207648,-627.007439737017 Z" fill="url(#d48)" fill-opacity="0.6" />
<path d="M-795.794259381706,-588.9070357323998 A990.0,990.0,0,0,0,-820.7193679931049,-553.6422301459658 C-328.28774719724197,-221.4568920583863,-334.7827390409635,-211.5100887433744,-836.9568476024087,-528.775221858436 A990.0,990.0,0,0,0,-865.1163815203893,-481.32488656319055 C-346.0465526081557,-192.52995462527622,-318.3177037526824,-235.56281429295993,-795.794259381706,-588.9070357323998 Z" fill="url(#d49)" fill-opacity="0.6" />
<path d="M-787.1469787978995,-600.4162171105468 A990.0,990.0,0,0,0,-795.794259381706,-588.9070357323998 C-318.3177037526824,-235.56281429295993,-23.982960454863388,395.27309244093567,-59.95740113715847,988.1827311023392 A990.0,990.0,0,0,0,-45.582148522862184,988.950083541146 C-18.232859409144876,395.58003341645843,-314.8587915191598,-240.16648684421872,-787.1469787978995,-600.4162171105468 Z" fill="url(#d50)" fill-opacity="0.6" />
<path d="M-970.2749900027222,196.6378492946289 A990.0,990.0,0,0,0,-965.7554883985804,217.75292564743987 C-386.3021953594322,87.10117025897596,-385.4118832248223,90.95977280697197,-963.5297080620558,227.39943201742992 A990.0,990.0,0,0,0,-959.5334562030665,243.71201535213225 C-383.81338248122665,97.48480614085291,-388.1099960010889,78.65513971785157,-970.2749900027222,196.6378492946289 Z" fill="url(#d51)" fill-opacity="0.6" />
<path d="M-972.1356099001162,187.22274424900698 A990.0,990.0,0,0,0,-970.2749900027222,196.6378492946289 C-388.1099960010889,78.65513971785157,-91.54456868849728,385.27339895668507,-228.86142172124318,963.1834973917126 A990.0,990.0,0,0,0,-219.51354762357724,965.3568264686957 C-87.8054190494309,386.1427305874783,-388.85424396004646,74.8890976996028,-972.1356099001162,187.22274424900698 Z" fill="url(#d52)" fill-opacity="0.6" />
<path d="M-972.5864968839893,184.8661842493908 A990.0,990.0,0,0,0,-972.1356099001162,187.22274424900698 C-388.85424396004646,74.8890976996028,0.11653795901457494,395.99998285215133,0.29134489753643733,989.9999571303782 A990.0,990.0,0,0,0,2.6906491814185247,989.996343633138 C1.0762596725674098,395.99853745325527,-389.03459875359573,73.94647369975633,-972.5864968839893,184.8661842493908 Z" fill="url(#d53)" fill-opacity="0.6" />
<path d="M-973.9048721514953,177.79004471448778 A990.0,990.0,0,0,0,-972.5864968839893,184.8661842493908 C-389.03459875359573,73.94647369975633,385.6311960622175,90.0254443122807,964.0779901555437,225.06361078070174 A990.0,990.0,0,0,0,965.6888483134526,218.04827044266483 C386.27553932538103,87.21930817706594,-389.56194886059814,71.11601788579512,-973.9048721514953,177.79004471448778 Z" fill="url(#d54)" fill-opacity="0.6" />
<path d="M-974.3328934086762,175.42922453763853 A990.0,990.0,0,0,0,-973.9048721514953,177.79004471448778 C-389.56194886059814,71.11601788579512,395.6880667557937,15.714764620017192,989.2201668894843,39.28691155004298 A990.0,990.0,0,0,0,989.2201668894843,39.28691155004298 C395.6880667557937,15.714764620017192,-389.7331573634705,70.17168981505542,-974.3328934086762,175.42922453763853 Z" fill="url(#d55)" fill-opacity="0.6" />
<path d="M-261.9878627467877,954.7053785191379 A990.0,990.0,0,0,0,-255.03969064949817,956.584944578059 C-102.01587625979927,382.6339778312236,-93.41093930852156,384.82515044822594,-233.52734827130388,962.0628761205647 A990.0,990.0,0,0,0,-228.86142172124318,963.1834973917126 C-91.54456868849728,385.27339895668507,-104.79514509871508,381.88215140765516,-261.9878627467877,954.7053785191379 Z" fill="url(#d56)" fill-opacity="0.6" />
<path d="M-266.61230614651953,953.4242907600134 A990.0,990.0,0,0,0,-261.9878627467877,954.7053785191379 C-104.79514509871508,381.88215140765516,0.11653795901457494,395.99998285215133,0.29134489753643733,989.9999571303782 A990.0,990.0,0,0,0,0.29134489753643733,989.9999571303782 C0.11653795901457494,395.99998285215133,-106.64492245860782,381.36971630400535,-266.61230614651953,953.4242907600134 Z" fill="url(#d57)" fill-opacity="0.6" />
<path d="M-268.9221856903623,952.775345001915 A990.0,990.0,0,0,0,-266.61230614651953,953.4242907600134 C-106.64492245860782,381.36971630400535,305.8391581697093,251.55200124436212,764.5978954242732,628.8800031109052 A990.0,990.0,0,0,0,766.1197662207103,627.0251221489648 C306.4479064882841,250.81004885958592,-107.56887427614492,381.110138000766,-268.9221856903623,952.775345001915 Z" fill="url(#d58)" fill-opacity="0.6" />
<path d="M-637.1811003378768,757.694031500983 A990.0,990.0,0,0,0,-268.9221856903623,952.775345001915 C-107.56887427614492,381.110138000766,314.4175639960913,240.74383782511205,786.0439099902283,601.8595945627801 A990.0,990.0,0,0,0,964.0779901555437,225.06361078070174 C385.6311960622175,90.0254443122807,-254.87244013515075,303.0776126003932,-637.1811003378768,757.694031500983 Z" fill="url(#d59)" fill-opacity="0.6" />
<path d="M-86.88013238487818,986.180431055487 A990.0,990.0,0,0,0,-82.09902910790454,986.5899601250458 C-32.83961164316182,394.63598405001835,236.04562160741972,317.95984733919914,590.1140540185493,794.8996183479978 A990.0,990.0,0,0,0,590.1140540185493,794.8996183479978 C236.04562160741972,317.95984733919914,-34.75205295395127,394.47217242219483,-86.88013238487818,986.180431055487 Z" fill="url(#d60)" fill-opacity="0.6" />
<path d="M-219.51354762357724,965.3568264686957 A990.0,990.0,0,0,0,-86.88013238487818,986.180431055487 C-34.75205295395127,394.47217242219483,240.74020938919978,314.4203421905845,601.8505234729994,786.0508554764613 A990.0,990.0,0,0,0,716.0588507993427,683.6371275698274 C286.4235403197371,273.45485102793094,-87.8054190494309,386.1427305874783,-219.51354762357724,965.3568264686957 Z" fill="url(#d61)" fill-opacity="0.6" />
<path d="M554.1346569922578,820.3869708375877 A990.0,990.0,0,0,0,556.1212707937271,819.0415936756631 C222.44850831749088,327.61663747026523,296.25343130693534,262.7734850377164,740.6335782673383,656.9337125942909 A990.0,990.0,0,0,0,742.2235087469909,655.1368277415837 C296.88940349879636,262.0547310966335,221.65386279690313,328.1547883350351,554.1346569922578,820.3869708375877 Z" fill="url(#d62)" fill-opacity="0.6" />
<path d="M552.1447884487925,821.7275294091334 A990.0,990.0,0,0,0,554.1346569922578,820.3869708375877 C221.65386279690313,328.1547883350351,299.49506278772105,259.0727839155997,748.7376569693026,647.6819597889993 A990.0,990.0,0,0,0,750.3051416500612,645.8654615424807 C300.1220566600245,258.3461846169923,220.857915379517,328.69101176365336,552.1447884487925,821.7275294091334 Z" fill="url(#d63)" fill-opacity="0.6" />
<path d="M548.1553339053561,824.3941593140428 A990.0,990.0,0,0,0,552.1447884487925,821.7275294091334 C220.857915379517,328.69101176365336,302.69046947092966,255.33209686889782,756.7261736773241,638.3302421722445 A990.0,990.0,0,0,0,758.2709706297843,636.4944108946793 C303.30838825191375,254.5977643578717,219.26213356214245,329.75766372561714,548.1553339053561,824.3941593140428 Z" fill="url(#d64)" fill-opacity="0.6" />
<path d="M580.193298626532,802.1693937248315 A990.0,990.0,0,0,0,582.1356848608559,800.7609158866222 C232.85427394434237,320.3043663546489,239.21336490504038,315.58353260398115,598.0334122626009,788.9588315099528 A990.0,990.0,0,0,0,601.8505234729994,786.0508554764613 C240.74020938919978,314.4203421905845,232.07731945061283,320.8677574899326,580.193298626532,802.1693937248315 Z" fill="url(#d65)" fill-opacity="0.6" />
<path d="M730.7987556068565,667.8571544899927 A990.0,990.0,0,0,0,734.0273192594831,664.3070785267433 C293.61092770379327,265.7228314106973,395.4111457260842,21.58763154182058,988.5278643152105,53.96907885455145 A990.0,990.0,0,0,0,988.7778437255988,49.17698402052613 C395.51113749023955,19.670793608210452,292.3195022427426,267.1428617959971,730.7987556068565,667.8571544899927 Z" fill="url(#d66)" fill-opacity="0.6" />
<text x="1100.0" y="0" font-size="10" text-anchor="start" dominant-baseline="middle" transform="rotate(-0.000000)" font-family="Arial">755, rue du milieu</text>
<text x="1100.0" y="0" font-size="10" text-anchor="start" dominant-baseline="middle" transform="rotate(-0.572958)" font-family="Arial">Beauregard</text>
<text x="1100.0" y="0" font-size="10" text-anchor="start" dominant-baseline="middle" transform="rotate(-1.145916)" font-family="Arial">Bois Vachon</text>
<text x="1100.0" y="0" font-size="10" text-anchor="start" dominant-baseline="middle" transform="rotate(-1.718873)" font-family="Arial">Bourg d'Etauliers</text>
<text x="1100.0000000000002" y="0" font-size="10" text-anchor="start" dominant-baseline="middle" transform="rotate(-19.232603)" font-family="Arial">Brelouze</text>
<text x="1100.0" y="0" font-size="10" text-anchor="start" dominant-baseline="middle" transform="rotate(-36.746333)" font-family="Arial">Carrire de Bellevue (Jonzac)</text>
<text x="1100.0" y="0" font-size="10" text-anchor="start" dominant-baseline="middle" transform="rotate(-37.388720)" font-family="Arial">Carrire de la Boule d'Or</text>
<text x="1100.0" y="0" font-size="10" text-anchor="start" dominant-baseline="middle" transform="rotate(-38.378254)" font-family="Arial">Carrire de la Roche Vernaize </text>
<text x="1100.0" y="0" font-size="10" text-anchor="start" dominant-baseline="middle" transform="rotate(-39.576077)" font-family="Arial">Carrire des Chaudrolles (NW)</text>
<text x="1100.0" y="0" font-size="10" text-anchor="start" dominant-baseline="middle" transform="rotate(-42.995640)" font-family="Arial">Cave Billard</text>
<text x="1100.0" y="0" font-size="10" text-anchor="start" dominant-baseline="middle" transform="rotate(-46.276344)" font-family="Arial">Cave Charissou</text>
<text x="1100.0" y="0" font-size="10" text-anchor="start" dominant-baseline="middle" transform="rotate(-46.988160)" font-family="Arial">Cave Grands Cailloux</text>
<text x="1100.0000000000002" y="0" font-size="10" text-anchor="start" dominant-baseline="middle" transform="rotate(-47.561118)" font-family="Arial">Cave Reynouard</text>
<text x="1100.0000000000002" y="0" font-size="10" text-anchor="start" dominant-baseline="middle" transform="rotate(-48.272935)" font-family="Arial">Caves du Coteau Bizeau</text>
<text x="1100.0" y="0" font-size="10" text-anchor="start" dominant-baseline="middle" transform="rotate(-48.984751)" font-family="Arial">Caves du chemin des Vaux - Le Mnach</text>
<text x="1100.0" y="0" font-size="10" text-anchor="start" dominant-baseline="middle" transform="rotate(-49.696568)" font-family="Arial">Cavit Rue des Vignes</text>
<text x="1100.0" y="0" font-size="10" text-anchor="start" dominant-baseline="middle" transform="rotate(-50.477814)" font-family="Arial">Chais du Chteau de Poc</text>
<text x="1100.0" y="0" font-size="10" text-anchor="start" dominant-baseline="middle" transform="rotate(-51.189630)" font-family="Arial">Champignonnire rue de la Providence</text>
<text x="1100.0" y="0" font-size="10" text-anchor="start" dominant-baseline="middle" transform="rotate(-52.109735)" font-family="Arial">Chteau de Gagemont</text>
<text x="1100.0" y="0" font-size="10" text-anchor="start" dominant-baseline="middle" transform="rotate(-53.238128)" font-family="Arial">Chteau de Verteuil</text>
<text x="1100.0" y="0" font-size="10" text-anchor="start" dominant-baseline="middle" transform="rotate(-79.152814)" font-family="Arial">Czelle</text>
<text x="-1100.0000000000002" y="0" font-size="10" text-anchor="end" dominant-baseline="middle" transform="rotate(59.241456)" font-family="Arial">Faye-L'Abbesse - Bourg</text>
<text x="-1100.0" y="0" font-size="10" text-anchor="end" dominant-baseline="middle" transform="rotate(42.422021)" font-family="Arial">Fermette des Nobis</text>
<text x="-1100.0" y="0" font-size="10" text-anchor="end" dominant-baseline="middle" transform="rotate(41.432486)" font-family="Arial">Goizet (W)</text>
<text x="-1100.0" y="0" font-size="10" text-anchor="end" dominant-baseline="middle" transform="rotate(40.720670)" font-family="Arial">Grande cavit Est - Chez Michel</text>
<text x="-1100.0" y="0" font-size="10" text-anchor="end" dominant-baseline="middle" transform="rotate(40.008853)" font-family="Arial">Grotte de Boisdichon</text>
<text x="-1100.0" y="0" font-size="10" text-anchor="end" dominant-baseline="middle" transform="rotate(39.088748)" font-family="Arial">Grottes de Loubeau</text>
<text x="-1100.0" y="0" font-size="10" text-anchor="end" dominant-baseline="middle" transform="rotate(36.155191)" font-family="Arial">Guibaud</text>
<text x="-1100.0" y="0" font-size="10" text-anchor="end" dominant-baseline="middle" transform="rotate(33.429922)" font-family="Arial">Ile de la Marquise</text>
<text x="-1100.0" y="0" font-size="10" text-anchor="end" dominant-baseline="middle" transform="rotate(32.856964)" font-family="Arial">La Babinire</text>
<text x="-1100.0" y="0" font-size="10" text-anchor="end" dominant-baseline="middle" transform="rotate(9.788883)" font-family="Arial">La Bourtire</text>
<text x="-1100.0" y="0" font-size="10" text-anchor="end" dominant-baseline="middle" transform="rotate(-44.175278)" font-family="Arial">La Brumaudire</text>
<text x="-1100.0" y="0" font-size="10" text-anchor="end" dominant-baseline="middle" transform="rotate(-75.713745)" font-family="Arial">La Marchandire</text>
<text x="-1100.0" y="0" font-size="10" text-anchor="end" dominant-baseline="middle" transform="rotate(-80.799614)" font-family="Arial">La Roche</text>
<text x="-1100.0000000000002" y="0" font-size="10" text-anchor="end" dominant-baseline="middle" transform="rotate(-85.885482)" font-family="Arial">Le Claveau</text>
<text x="-1100.0" y="0" font-size="10" text-anchor="end" dominant-baseline="middle" transform="rotate(-87.916457)" font-family="Arial">Le Petit Pin</text>
<text x="1100.0" y="0" font-size="10" text-anchor="start" dominant-baseline="middle" transform="rotate(-287.027063)" font-family="Arial">Le Plessis</text>
<text x="1100.0" y="0" font-size="10" text-anchor="start" dominant-baseline="middle" transform="rotate(-304.957369)" font-family="Arial">Les Groies</text>
<text x="1100.0000000000002" y="0" font-size="10" text-anchor="start" dominant-baseline="middle" transform="rotate(-305.877474)" font-family="Arial">Les Hubles</text>
<text x="1100.0" y="0" font-size="10" text-anchor="start" dominant-baseline="middle" transform="rotate(-306.589290)" font-family="Arial">Les Roches</text>
<text x="1100.0" y="0" font-size="10" text-anchor="start" dominant-baseline="middle" transform="rotate(-312.508311)" font-family="Arial">Mairie d'Annepont</text>
<text x="1100.0" y="0" font-size="10" text-anchor="start" dominant-baseline="middle" transform="rotate(-318.496762)" font-family="Arial">Maulvrier</text>
<text x="1100.0" y="0" font-size="10" text-anchor="start" dominant-baseline="middle" transform="rotate(-319.208578)" font-family="Arial">Montjaugin</text>
<text x="1100.0" y="0" font-size="10" text-anchor="start" dominant-baseline="middle" transform="rotate(-319.920395)" font-family="Arial">Montjaugin - cave long de la route</text>
<text x="1100.0" y="0" font-size="10" text-anchor="start" dominant-baseline="middle" transform="rotate(-320.632212)" font-family="Arial">Moulin Poussard</text>
<text x="1100.0" y="0" font-size="10" text-anchor="start" dominant-baseline="middle" transform="rotate(-321.344028)" font-family="Arial">Muse des Mines d'Argent</text>
<text x="1100.0" y="0" font-size="10" text-anchor="start" dominant-baseline="middle" transform="rotate(-321.986415)" font-family="Arial">Petexaenea (Site gnrique Galeries N&amp;S)</text>
<text x="1100.0" y="0" font-size="10" text-anchor="start" dominant-baseline="middle" transform="rotate(-339.430716)" font-family="Arial">Puy-Chenin</text>
<text x="1100.0" y="0" font-size="10" text-anchor="start" dominant-baseline="middle" transform="rotate(-357.013875)" font-family="Arial">Saint-Mme-les-Carrires-Le bourg</text>
<text x="1100.0" y="0" font-size="10" text-anchor="start" dominant-baseline="middle" transform="rotate(-357.933980)" font-family="Arial">Tunnel ferroviaire</text>
<text x="1100.0" y="0" font-size="10" text-anchor="start" dominant-baseline="middle" transform="rotate(-358.715226)" font-family="Arial">Vaufrache</text>
<text x="1100.0" y="0" font-size="10" text-anchor="start" dominant-baseline="middle" transform="rotate(-359.357613)" font-family="Arial">Viaduc de Lessac</text>
</svg>