<?xml version="1.0" encoding="UTF-8"?>
<svg xmlns="http://www.w3.org/2000/svg" xmlns:xlink="http://www.w3.org/1999/xlink"
     width="2600" height="2600" viewBox="-1300 -1300 2600 2600">
<defs>
<linearGradient x1="199.98648520682914" y1="-2.325023573795286" x2="-101.58305351225665" y2="172.2814071196483" gradientUnits="userSpaceOnUse" id="d0">
<stop offset="0" stop-color="#FFB6C1" />
<stop offset="1" stop-color="#FFB6C1" />
</linearGradient>
<linearGradient x1="198.9731369554192" y1="-20.240819403374026" x2="109.69146813198805" y2="-167.2357073685194" gradientUnits="userSpaceOnUse" id="d1">
<stop offset="0" stop-color="#FFA07A" />
<stop offset="1" stop-color="#DA70D6" />
</linearGradient>
<linearGradient x1="198.9731369554192" y1="-20.240819403374026" x2="-179.96807771496069" y2="87.24385940329482" gradientUnits="userSpaceOnUse" id="d2">
<stop offset="0" stop-color="#FFA07A" />
<stop offset="1" stop-color="#DA70D6" />
</linearGradient>
<linearGradient x1="199.81296633924802" y1="-8.647455273694007" x2="179.0314786850106" y2="89.15004004406613" gradientUnits="userSpaceOnUse" id="d3">
<stop offset="0" stop-color="#FFA07A" />
<stop offset="1" stop-color="#87CEFA" />
</linearGradient>
<linearGradient x1="179.34227216280897" y1="-88.523157509665" x2="-78.69129259908537" y2="-183.8686500442235" gradientUnits="userSpaceOnUse" id="d4">
<stop offset="0" stop-color="#87CEFA" />
<stop offset="1" stop-color="#20B2AA" />
</linearGradient>
<linearGradient x1="180.35924543441743" y1="-86.4323005960594" x2="-106.07056842220555" y2="-169.55540249307955" gradientUnits="userSpaceOnUse" id="d5">
<stop offset="0" stop-color="#87CEFA" />
<stop offset="1" stop-color="#87CEFA" />
</linearGradient>
<linearGradient x1="180.35924543441743" y1="-86.4323005960594" x2="168.9160935669096" y2="107.08572890023696" gradientUnits="userSpaceOnUse" id="d6">
<stop offset="0" stop-color="#87CEFA" />
<stop offset="1" stop-color="#90EE90" />
</linearGradient>
<linearGradient x1="181.35184352704096" y1="-84.32976253579548" x2="199.96000133331552" y2="3.9997333386683556" gradientUnits="userSpaceOnUse" id="d7">
<stop offset="0" stop-color="#87CEFA" />
<stop offset="1" stop-color="#90EE90" />
</linearGradient>
<linearGradient x1="173.2259735963776" y1="-99.96380380711358" x2="-155.1967874511747" y2="126.15053374772103" gradientUnits="userSpaceOnUse" id="d8">
<stop offset="0" stop-color="#20B2AA" />
<stop offset="1" stop-color="#DA70D6" />
</linearGradient>
<linearGradient x1="172.21769099235456" y1="-101.6910365236872" x2="164.31357956854544" y2="-114.02213631296023" gradientUnits="userSpaceOnUse" id="d9">
<stop offset="0" stop-color="#FFB6C1" />
<stop offset="1" stop-color="#DA70D6" />
</linearGradient>
<linearGradient x1="81.14335459500663" y1="-182.79977025442076" x2="-179.96807771496069" y2="87.24385940329482" gradientUnits="userSpaceOnUse" id="d10">
<stop offset="0" stop-color="#DA70D6" />
<stop offset="1" stop-color="#DA70D6" />
</linearGradient>
<linearGradient x1="101.79897957034889" y1="-172.15390718318213" x2="-116.8800179939332" y2="162.2931341546458" gradientUnits="userSpaceOnUse" id="d11">
<stop offset="0" stop-color="#DA70D6" />
<stop offset="1" stop-color="#20B2AA" />
</linearGradient>
<linearGradient x1="101.79897957034889" y1="-172.15390718318213" x2="67.89999592194398" y2="188.1212123972201" gradientUnits="userSpaceOnUse" id="d12">
<stop offset="0" stop-color="#DA70D6" />
<stop offset="1" stop-color="#FFD700" />
</linearGradient>
<linearGradient x1="103.79341007218872" y1="-170.95884892448964" x2="175.81402876031876" y2="95.33848798395016" gradientUnits="userSpaceOnUse" id="d13">
<stop offset="0" stop-color="#DA70D6" />
<stop offset="1" stop-color="#87CEFA" />
</linearGradient>
<linearGradient x1="-80.82346984553992" y1="-182.94142975861726" x2="-156.65281501281032" y2="124.3378283088547" gradientUnits="userSpaceOnUse" id="d14">
<stop offset="0" stop-color="#20B2AA" />
<stop offset="1" stop-color="#DA70D6" />
</linearGradient>
<linearGradient x1="-78.69129259908537" y1="-183.8686500442235" x2="-27.364350676130485" y2="198.11913666295277" gradientUnits="userSpaceOnUse" id="d15">
<stop offset="0" stop-color="#20B2AA" />
<stop offset="1" stop-color="#20B2AA" />
</linearGradient>
<linearGradient x1="-145.51426047017145" y1="-137.20641384359226" x2="155.35483262034884" y2="125.9558493342147" gradientUnits="userSpaceOnUse" id="d16">
<stop offset="0" stop-color="#87CEFA" />
<stop offset="1" stop-color="#90EE90" />
</linearGradient>
<linearGradient x1="-113.83764852167018" y1="-164.44144787448414" x2="199.55791775823977" y2="13.290502623889413" gradientUnits="userSpaceOnUse" id="d17">
<stop offset="0" stop-color="#87CEFA" />
<stop offset="1" stop-color="#90EE90" />
</linearGradient>
<linearGradient x1="-172.2806356364371" y1="101.58436191021335" x2="-164.384162428344" y2="113.92035438292758" gradientUnits="userSpaceOnUse" id="d18">
<stop offset="0" stop-color="#DA70D6" />
<stop offset="1" stop-color="#FFA07A" />
</linearGradient>
<linearGradient x1="-173.4499241314982" y1="99.57471475619461" x2="-16.456601146461036" y2="199.32180081141726" gradientUnits="userSpaceOnUse" id="d19">
<stop offset="0" stop-color="#DA70D6" />
<stop offset="1" stop-color="#FFD700" />
</linearGradient>
<linearGradient x1="-174.59577122805803" y1="97.55161028542598" x2="199.41503713433454" y2="15.285384022391604" gradientUnits="userSpaceOnUse" id="d20">
<stop offset="0" stop-color="#DA70D6" />
<stop offset="1" stop-color="#FFA07A" />
</linearGradient>
<linearGradient x1="-163.23675873151734" y1="115.55847263973509" x2="175.81402876031876" y2="95.33848798395016" gradientUnits="userSpaceOnUse" id="d21">
<stop offset="0" stop-color="#90EE90" />
<stop offset="1" stop-color="#87CEFA" />
</linearGradient>
<linearGradient x1="-149.16494210515953" y1="133.22845059057173" x2="-29.665659874238848" y2="197.78763516515883" gradientUnits="userSpaceOnUse" id="d22">
<stop offset="0" stop-color="#DA70D6" />
<stop offset="1" stop-color="#20B2AA" />
</linearGradient>
<linearGradient x1="-153.71978536470726" y1="127.94619020286744" x2="155.35483262034884" y2="125.9558493342147" gradientUnits="userSpaceOnUse" id="d23">
<stop offset="0" stop-color="#DA70D6" />
<stop offset="1" stop-color="#90EE90" />
</linearGradient>
<linearGradient x1="-143.03799611930734" y1="139.78602099699745" x2="-43.06108059157161" y2="195.30935292065809" gradientUnits="userSpaceOnUse" id="d24">
<stop offset="0" stop-color="#FF69B4" />
<stop offset="1" stop-color="#FF69B4" />
</linearGradient>
<linearGradient x1="-144.653359445167" y1="138.11374153655856" x2="199.0694681559801" y2="19.270361908776437" gradientUnits="userSpaceOnUse" id="d25">
<stop offset="0" stop-color="#FF69B4" />
<stop offset="1" stop-color="#FFB6C1" />
</linearGradient>
<linearGradient x1="-116.8800179939332" y1="162.2931341546458" x2="-51.15125907080331" y2="193.3482575444412" gradientUnits="userSpaceOnUse" id="d26">
<stop offset="0" stop-color="#20B2AA" />
<stop offset="1" stop-color="#90EE90" />
</linearGradient>
<linearGradient x1="-91.40294502126933" y1="177.891825673466" x2="-18.448963111240705" y2="199.1472715357157" gradientUnits="userSpaceOnUse" id="d27">
<stop offset="0" stop-color="#FFB6C1" />
<stop offset="1" stop-color="#FFB6C1" />
</linearGradient>
<linearGradient x1="-95.5139874130852" y1="175.71874745869604" x2="74.11648443306277" y2="185.75991692311763" gradientUnits="userSpaceOnUse" id="d28">
<stop offset="0" stop-color="#FFB6C1" />
<stop offset="1" stop-color="#FFA07A" />
</linearGradient>
<linearGradient x1="-99.57339747806816" y1="173.4506803522968" x2="199.55791775823977" y2="13.290502623889413" gradientUnits="userSpaceOnUse" id="d29">
<stop offset="0" stop-color="#FFB6C1" />
<stop offset="1" stop-color="#90EE90" />
</linearGradient>
<linearGradient x1="-59.773573089511856" y1="190.85890065729916" x2="195.6268149475689" y2="41.595063090102755" gradientUnits="userSpaceOnUse" id="d30">
<stop offset="0" stop-color="#FFA07A" />
<stop offset="1" stop-color="#FF69B4" />
</linearGradient>
<linearGradient x1="-27.364350676130485" y1="198.11913666295277" x2="122.15195100121856" y2="158.363192903515" gradientUnits="userSpaceOnUse" id="d31">
<stop offset="0" stop-color="#20B2AA" />
<stop offset="1" stop-color="#90EE90" />
</linearGradient>
<linearGradient x1="-14.462593535280513" y1="199.47639807313863" x2="71.95199515871187" y2="186.60897725640294" gradientUnits="userSpaceOnUse" id="d32">
<stop offset="0" stop-color="#FFA07A" />
<stop offset="1" stop-color="#FFA07A" />
</linearGradient>
<linearGradient x1="7.798326401622502" y1="199.84790743296202" x2="118.43720218858019" y2="161.16025917620442" gradientUnits="userSpaceOnUse" id="d33">
<stop offset="0" stop-color="#DA70D6" />
<stop offset="1" stop-color="#90EE90" />
</linearGradient>
<linearGradient x1="5.474543958003969" y1="199.9250593808887" x2="198.60622543655336" y2="23.570473432770672" gradientUnits="userSpaceOnUse" id="d34">
<stop offset="0" stop-color="#DA70D6" />
<stop offset="1" stop-color="#20B2AA" />
</linearGradient>
<linearGradient x1="170.14956345712122" y1="105.11482319516634" x2="199.2522151728945" y2="17.278736895229333" gradientUnits="userSpaceOnUse" id="d35">
<stop offset="0" stop-color="#90EE90" />
<stop offset="1" stop-color="#FFD700" />
</linearGradient>
</defs>
<rect x="-1300" y="-1300" width="2600" height="2600" fill="#ffffff" fill-opacity="1.0" />
<path d="M1000.0,-0.0 A1000,1000,0,0,0,999.9324260341458,-11.625117868976428 L1069.927695856536,-12.438876119804778 A1070.0,1070.0,0,0,1,1070.0,-0.0 Z" fill="#FFB6C1" fill-opacity="0.9" />
<path d="M999.7661805883014,-21.623694223697157 A1000,1000,0,0,0,999.7661805883014,-21.623694223697157 L1069.7498132294825,-23.13735281935596 A1070.0,1070.0,0,0,1,1069.7498132294825,-23.13735281935596 Z" fill="#FFD700" fill-opacity="0.9" />
<path d="M999.4999593575338,-31.620108227015198 A1000,1000,0,0,0,919.638382264158,-392.76614653832155 L984.0130690226491,-420.2597767960041 A1070.0,1070.0,0,0,1,1069.4649565125612,-33.83351580290626 Z" fill="#FFA07A" fill-opacity="0.9" />
<path d="M915.6648047235402,-401.9427389449909 A1000,1000,0,0,0,915.6648047235402,-401.9427389449909 L979.761341054188,-430.07873067114025 A1070.0,1070.0,0,0,1,979.761341054188,-430.07873067114025 Z" fill="#90EE90" fill-opacity="0.9" />
<path d="M911.5996614655013,-411.0791374127168 A1000,1000,0,0,0,891.505305770249,-453.01025350812415 L953.9106771741665,-484.7209712536929 A1070.0,1070.0,0,0,1,975.4116377680864,-439.854677031607 Z" fill="#87CEFA" fill-opacity="0.9" />
<path d="M886.9307038426699,-461.9025076584302 A1000,1000,0,0,0,886.9307038426699,-461.9025076584302 L949.0158531116568,-494.23568319452033 A1070.0,1070.0,0,0,1,949.0158531116568,-494.23568319452033 Z" fill="#DA70D6" fill-opacity="0.9" />
<path d="M882.2674095838131,-470.74857194288785 A1000,1000,0,0,0,882.2674095838131,-470.74857194288785 L944.0261282546801,-503.70097197889004 A1070.0,1070.0,0,0,1,944.0261282546801,-503.70097197889004 Z" fill="#FF69B4" fill-opacity="0.9" />
<path d="M877.5158893192182,-479.5475617624403 A1000,1000,0,0,0,866.129867981888,-499.8190190355679 L926.7589587406202,-534.8063503680577 A1070.0,1070.0,0,0,1,938.9420015715635,-513.1158910858112 Z" fill="#20B2AA" fill-opacity="0.9" />
<path d="M861.0884549617728,-508.455182618436 A1000,1000,0,0,0,849.0348101595179,-528.3369106331598 L908.4672468706841,-565.320494377481 A1070.0,1070.0,0,0,1,921.3646468090969,-544.0470454017266 Z" fill="#FFB6C1" fill-opacity="0.9" />
<path d="M843.7090777221531,-536.8007006042689 A1000,1000,0,0,0,843.7090777221531,-536.8007006042689 L902.7687131627039,-574.3767496465678 A1070.0,1070.0,0,0,1,902.7687131627039,-574.3767496465678 Z" fill="#FFD700" fill-opacity="0.9" />
<path d="M838.2989750801047,-545.2108109526498 A1000,1000,0,0,0,838.2989750801047,-545.2108109526498 L896.979903335712,-583.3755677193353 A1070.0,1070.0,0,0,1,896.979903335712,-583.3755677193353 Z" fill="#FFA07A" fill-opacity="0.9" />
<path d="M832.8050432391284,-553.5664006742765 A1000,1000,0,0,0,832.8050432391284,-553.5664006742765 L891.1013962658674,-592.3160487214758 A1070.0,1070.0,0,0,1,891.1013962658674,-592.3160487214758 Z" fill="#90EE90" fill-opacity="0.9" />
<path d="M827.2278315878301,-561.8666342171393 A1000,1000,0,0,0,827.2278315878301,-561.8666342171393 L885.1337797989783,-601.1972986123391 A1070.0,1070.0,0,0,1,885.1337797989783,-601.1972986123391 Z" fill="#87CEFA" fill-opacity="0.9" />
<path d="M821.5678978427272,-570.1106815648012 A1000,1000,0,0,0,-374.9921350878982,-927.0279923617298 L-401.2415845440511,-991.919951827051 A1070.0,1070.0,0,0,1,879.0776506917182,-610.0184292743373 Z" fill="#DA70D6" fill-opacity="0.9" />
<path d="M-384.24351105711446,-923.2317824958699 A1000,1000,0,0,0,-384.24351105711446,-923.2317824958699 L-411.1405568311125,-987.8580072705809 A1070.0,1070.0,0,0,1,-411.1405568311125,-987.8580072705809 Z" fill="#FF69B4" fill-opacity="0.9" />
<path d="M-393.4564629954269,-919.3432502211175 A1000,1000,0,0,0,-435.76658809379273,-900.0597095199266 L-466.27024926035824,-963.0638891863216 A1070.0,1070.0,0,0,1,-420.99841540510675,-983.6972777365958 Z" fill="#20B2AA" fill-opacity="0.9" />
<path d="M-444.7452470319545,-895.657113655938 A1000,1000,0,0,0,-444.7452470319545,-895.657113655938 L-475.8774143241913,-958.3531116118537 A1070.0,1070.0,0,0,1,-475.8774143241913,-958.3531116118537 Z" fill="#FFB6C1" fill-opacity="0.9" />
<path d="M-453.6794318160327,-891.1649528269621 A1000,1000,0,0,0,-453.6794318160327,-891.1649528269621 L-485.43699204315504,-953.5464995248495 A1070.0,1070.0,0,0,1,-485.43699204315504,-953.5464995248495 Z" fill="#FFD700" fill-opacity="0.9" />
<path d="M-462.56824903499427,-886.5836762453388 A1000,1000,0,0,0,-462.56824903499427,-886.5836762453388 L-494.94802646744387,-948.6445335825125 A1070.0,1070.0,0,0,1,-494.94802646744387,-948.6445335825125 Z" fill="#FFA07A" fill-opacity="0.9" />
<path d="M-471.41080981452467,-881.913742034908 A1000,1000,0,0,0,-471.41080981452467,-881.913742034908 L-504.4095665015414,-943.6477039773515 A1070.0,1070.0,0,0,1,-504.4095665015414,-943.6477039773515 Z" fill="#90EE90" fill-opacity="0.9" />
<path d="M-480.20622990591454,-877.1556171851993 A1000,1000,0,0,0,-727.5713023508572,-686.0320692179612 L-778.5012935154173,-734.0543140632185 A1070.0,1070.0,0,0,1,-513.8206659993286,-938.5565103881632 Z" fill="#87CEFA" fill-opacity="0.9" />
<path d="M-734.3951304429663,-678.7221761381152 A1000,1000,0,0,0,-849.3618485259846,527.8109986240553 L-908.8171779228036,564.7577685277392 A1070.0,1070.0,0,0,1,-785.802789573974,-726.2327284677833 Z" fill="#DA70D6" fill-opacity="0.9" />
<path d="M-844.0413587692773,536.2780852197039 A1000,1000,0,0,0,-844.0413587692773,536.2780852197039 L-903.1242538831267,573.8175511850833 A1070.0,1070.0,0,0,1,-903.1242538831267,573.8175511850833 Z" fill="#FF69B4" fill-opacity="0.9" />
<path d="M-838.6364655800587,544.6915444537276 A1000,1000,0,0,0,-838.6364655800587,544.6915444537276 L-897.3410181706629,582.8199525654886 A1070.0,1070.0,0,0,1,-897.3410181706629,582.8199525654886 Z" fill="#20B2AA" fill-opacity="0.9" />
<path d="M-833.1477094431433,553.0505349872141 A1000,1000,0,0,0,-833.1477094431433,553.0505349872141 L-891.4680491041634,591.7640724363191 A1070.0,1070.0,0,0,1,-891.4680491041634,591.7640724363191 Z" fill="#FFB6C1" fill-opacity="0.9" />
<path d="M-827.5756392295713,561.3542209280755 A1000,1000,0,0,0,-827.5756392295713,561.3542209280755 L-885.5059339756413,600.6490163930408 A1070.0,1070.0,0,0,1,-885.5059339756413,600.6490163930408 Z" fill="#FFD700" fill-opacity="0.9" />
<path d="M-821.92081214172,569.6017719146379 A1000,1000,0,0,0,-821.92081214172,569.6017719146379 L-879.4552689916405,609.4738959486625 A1070.0,1070.0,0,0,1,-879.4552689916405,609.4738959486625 Z" fill="#FFA07A" fill-opacity="0.9" />
<path d="M-816.1837936575866,577.7923631986754 A1000,1000,0,0,0,-809.4117365558043,587.2415522812715 L-866.0705581147106,628.3484609409605 A1070.0,1070.0,0,0,1,-873.3166592136178,618.2378286225827 Z" fill="#90EE90" fill-opacity="0.9" />
<path d="M-803.4989486565203,595.306172912617 A1000,1000,0,0,0,-796.5241486177614,604.6067156993463 L-852.2808390210048,646.9291857983005 A1070.0,1070.0,0,0,1,-859.7438750624767,636.9776050165002 Z" fill="#87CEFA" fill-opacity="0.9" />
<path d="M-790.4383563525032,612.5415943482965 A1000,1000,0,0,0,-730.1362061699525,683.30163210675 L-781.2457406018492,731.1327463542226 A1070.0,1070.0,0,0,1,-845.7690412971784,655.4195059526772 Z" fill="#DA70D6" fill-opacity="0.9" />
<path d="M-723.266797225835,690.5687076827929 A1000,1000,0,0,0,-707.0165075205821,707.1970433290843 L-756.5076630470229,756.7008363621202 A1070.0,1070.0,0,0,1,-773.8954730316435,738.9085172205885 Z" fill="#FF69B4" fill-opacity="0.9" />
<path d="M-699.9093044220892,714.2317310112926 A1000,1000,0,0,0,-574.9272156685739,818.2045567482382 L-615.1721207653742,875.478875720615 A1070.0,1070.0,0,0,1,-748.9029557316355,764.2279521820831 Z" fill="#20B2AA" fill-opacity="0.9" />
<path d="M-566.7165603466049,823.9128231972803 A1000,1000,0,0,0,-425.72219741619546,904.8539167330415 L-455.52275123532917,968.1936909043544 A1070.0,1070.0,0,0,1,-606.3867195708673,881.58672082109 Z" fill="#FFB6C1" fill-opacity="0.9" />
<path d="M-416.6525231246101,909.065825435043 A1000,1000,0,0,0,-416.6525231246101,909.065825435043 L-445.81819974333285,972.7004332154961 A1070.0,1070.0,0,0,1,-445.81819974333285,972.7004332154961 Z" fill="#FFD700" fill-opacity="0.9" />
<path d="M-407.5411839279217,913.1868283120535 A1000,1000,0,0,0,-265.4107594002931,964.1354307329234 L-283.98951255831366,1031.624910884228 A1070.0,1070.0,0,0,1,-436.06906680287625,977.1099062938973 Z" fill="#FFA07A" fill-opacity="0.9" />
<path d="M-255.75629535401657,966.741287722206 A1000,1000,0,0,0,-255.75629535401657,966.741287722206 L-273.65923602879775,1034.4131778627604 A1070.0,1070.0,0,0,1,-273.65923602879775,1034.4131778627604 Z" fill="#90EE90" fill-opacity="0.9" />
<path d="M-246.0762558913341,969.2504713883314 A1000,1000,0,0,0,-234.79197656837027,972.045640769567 L-251.2274149281562,1040.0888356234366 A1070.0,1070.0,0,0,1,-263.30159380372754,1037.0980043855147 Z" fill="#87CEFA" fill-opacity="0.9" />
<path d="M-225.05994266647284,974.3449195264293 A1000,1000,0,0,0,-225.05994266647284,974.3449195264293 L-240.81413865312595,1042.5490638932795 A1070.0,1070.0,0,0,1,-240.81413865312595,1042.5490638932795 Z" fill="#DA70D6" fill-opacity="0.9" />
<path d="M-215.30540295785806,976.5467646032905 A1000,1000,0,0,0,-215.30540295785806,976.5467646032905 L-230.37678116490815,1044.9050381255208 A1070.0,1070.0,0,0,1,-230.37678116490815,1044.9050381255208 Z" fill="#FF69B4" fill-opacity="0.9" />
<path d="M-205.52933288836806,978.6509558174776 A1000,1000,0,0,0,-102.19740097541666,994.7641384940804 L-109.35121904369583,1064.397628188666 A1070.0,1070.0,0,0,1,-219.91638619055385,1047.156522724701 Z" fill="#20B2AA" fill-opacity="0.9" />
<path d="M-92.24481555620352,995.7363576785785 A1000,1000,0,0,0,-92.24481555620352,995.7363576785785 L-98.70195264513777,1065.4379027160792 A1070.0,1070.0,0,0,1,-98.70195264513777,1065.4379027160792 Z" fill="#FFB6C1" fill-opacity="0.9" />
<path d="M-82.28300573230518,996.6090040570863 A1000,1000,0,0,0,-82.28300573230518,996.6090040570863 L-88.04281613356655,1066.3716343410824 A1070.0,1070.0,0,0,1,-88.04281613356655,1066.3716343410824 Z" fill="#FFD700" fill-opacity="0.9" />
<path d="M-72.31296767640256,997.3819903656931 A1000,1000,0,0,0,-60.7133980039981,998.1552400818263 L-64.96333586427797,1068.026106887554 A1070.0,1070.0,0,0,1,-77.37487541375074,1067.1987296912916 Z" fill="#FFA07A" fill-opacity="0.9" />
<path d="M-50.72897631695191,998.7124565969096 A1000,1000,0,0,0,-50.72897631695191,998.7124565969096 L-54.28000465913854,1068.6223285586934 A1070.0,1070.0,0,0,1,-54.28000465913854,1068.6223285586934 Z" fill="#90EE90" fill-opacity="0.9" />
<path d="M-40.73948177454802,999.1698026985911 A1000,1000,0,0,0,-29.121262118704248,999.575886110011 L-31.15975046701355,1069.5461981377118 A1070.0,1070.0,0,0,1,-43.59124549876638,1069.1116888874926 Z" fill="#87CEFA" fill-opacity="0.9" />
<path d="M-19.12421380178027,999.8171154998618 A1000,1000,0,0,0,290.5100876424453,956.8719292454862 L310.8457937774165,1023.8529642926702 A1070.0,1070.0,0,0,1,-20.462908767904892,1069.8043135848523 Z" fill="#DA70D6" fill-opacity="0.9" />
<path d="M300.0641220737058,953.9190335894007 A1000,1000,0,0,0,300.0641220737058,953.9190335894007 L321.0686106188652,1020.6933659406587 A1070.0,1070.0,0,0,1,321.0686106188652,1020.6933659406587 Z" fill="#FF69B4" fill-opacity="0.9" />
<path d="M309.58815034281156,950.8707468248862 A1000,1000,0,0,0,309.58815034281156,950.8707468248862 L331.25932086680837,1017.4316991026283 A1070.0,1070.0,0,0,1,331.25932086680837,1017.4316991026283 Z" fill="#20B2AA" fill-opacity="0.9" />
<path d="M319.08122005487235,947.7273737780787 A1000,1000,0,0,0,330.0771008992296,943.9539752879691 L353.1824979621757,1010.030753558127 A1070.0,1070.0,0,0,1,341.4169054587134,1014.0682899425442 Z" fill="#FFB6C1" fill-opacity="0.9" />
<path d="M339.4999796097199,940.6060619861004 A1000,1000,0,0,0,350.41169458855273,936.5957742247073 L374.94051320975143,1002.1574784204369 A1070.0,1070.0,0,0,1,363.26497818240034,1006.4484863251274 Z" fill="#FFD700" fill-opacity="0.9" />
<path d="M359.75997579355936,933.0448862820147 A1000,1000,0,0,0,370.58242216531386,928.7995846155882 L396.52319171688583,993.8155555386794 A1070.0,1070.0,0,0,1,384.94317409910855,998.3580283217558 Z" fill="#FFA07A" fill-opacity="0.9" />
<path d="M379.85173424561333,925.0473825651311 A1000,1000,0,0,0,856.8001899287522,515.6485571957458 L916.7762032237648,551.743956199448 A1070.0,1070.0,0,0,1,406.4413556428063,989.8006993446903 Z" fill="#90EE90" fill-opacity="0.9" />
<path d="M861.9137499072154,507.0549158827691 A1000,1000,0,0,0,900.2788027075968,435.3137689016691 L963.2983188971286,465.785732724786 A1070.0,1070.0,0,0,1,922.2477124007206,542.5487599945629 Z" fill="#87CEFA" fill-opacity="0.9" />
<path d="M904.586854279661,426.2893654132453 A1000,1000,0,0,0,904.586854279661,426.2893654132453 L967.9079340792373,456.12962099217253 A1070.0,1070.0,0,0,1,967.9079340792373,456.12962099217253 Z" fill="#DA70D6" fill-opacity="0.9" />
<path d="M908.8044479201169,417.2223333435201 A1000,1000,0,0,0,990.2505336777205,139.29781244150945 L1059.568071035161,149.0486593124151 A1070.0,1070.0,0,0,1,972.4207592745252,446.42789667756654 Z" fill="#FF69B4" fill-opacity="0.9" />
<path d="M991.5939764718687,129.38850731308136 A1000,1000,0,0,0,993.0311271827668,117.85236716385336 L1062.5433060855605,126.1020328653231 A1070.0,1070.0,0,0,1,1061.0055548248995,138.44570282499706 Z" fill="#20B2AA" fill-opacity="0.9" />
<path d="M994.1599800698448,107.91632882713304 A1000,1000,0,0,0,995.3473407799005,96.35180954388218 L1065.0216546344936,103.09643621195394 A1070.0,1070.0,0,0,1,1063.7511786747339,115.47047184503236 Z" fill="#FFB6C1" fill-opacity="0.9" />
<path d="M996.2610758644724,86.39368447614666 A1000,1000,0,0,0,996.2610758644724,86.39368447614666 L1065.9993511749856,92.44124238947693 A1070.0,1070.0,0,0,1,1065.9993511749856,92.44124238947693 Z" fill="#FFD700" fill-opacity="0.9" />
<path d="M997.0751856716727,76.42692011195803 A1000,1000,0,0,0,997.0751856716727,76.42692011195803 L1066.8704486686897,81.77680451979509 A1070.0,1070.0,0,0,1,1066.8704486686897,81.77680451979509 Z" fill="#FFA07A" fill-opacity="0.9" />
<path d="M997.7895887911989,66.45251311944706 A1000,1000,0,0,0,999.8000066665777,19.99866669334178 L1069.7860071332382,21.398573361875705 A1070.0,1070.0,0,0,1,1067.6348600065828,71.10418903780835 Z" fill="#90EE90" fill-opacity="0.9" />
<path d="M999.9500004166651,9.999833334175577 A1000,1000,0,0,0,999.9500004166651,9.999833334175577 L1069.9465004458318,10.699821667567868 A1070.0,1070.0,0,0,1,1069.9465004458318,10.699821667567868 Z" fill="#87CEFA" fill-opacity="0.9" />
<path d="M990.0,-0.0 A990.0,990.0,0,0,0,989.9331017738043,-11.508866690286665 C395.97324070952175,-4.603546676114666,-201.1344459542682,341.11718609690365,-502.83611488567044,852.7929652422591 A990.0,990.0,0,0,0,-492.8883175164374,858.5808677438692 C-197.15532700657496,343.43234709754773,396.0,-0.0,990.0,-0.0 Z" fill="url(#d0)" fill-opacity="0.6" />
<path d="M984.917027929325,-100.19205604670142 A990.0,990.0,0,0,0,910.4419984415165,-388.83848507293834 C364.1767993766066,-155.53539402917534,325.34088754572,-225.7638298996613,813.3522188643,-564.4095747491532 A990.0,990.0,0,0,0,542.9727672533409,-827.816751474171 C217.18910690133634,-331.1267005896684,393.96681117173,-40.07682241868057,984.917027929325,-100.19205604670142 Z" fill="url(#d1)" fill-opacity="0.6" />
<path d="M989.0741833792777,-42.80490360478534 A990.0,990.0,0,0,0,984.917027929325,-100.19205604670142 C393.96681117173,-40.07682241868057,-356.33679387562216,172.74284161852376,-890.8419846890554,431.85710404630936 A990.0,990.0,0,0,0,-864.2490675788872,482.88047091285864 C-345.6996270315549,193.15218836514347,395.62967335171106,-17.121961441914134,989.0741833792777,-42.80490360478534 Z" fill="url(#d2)" fill-opacity="0.6" />
<path d="M989.5049597639586,-31.303907144745047 A990.0,990.0,0,0,0,989.0741833792777,-42.80490360478534 C395.62967335171106,-17.121961441914134,354.482327796321,176.51707928725094,886.2058194908025,441.2926982181273 A990.0,990.0,0,0,0,891.2760146805209,430.9606312126524 C356.51040587220837,172.38425248506098,395.8019839055835,-12.521562857898019,989.5049597639586,-31.303907144745047 Z" fill="url(#d3)" fill-opacity="0.6" />
<path d="M887.7442472059043,-438.1896296728417 A990.0,990.0,0,0,0,882.5902527125465,-448.4801509730429 C353.03610108501863,-179.39206038921716,-155.80875934618905,-364.0599270875625,-389.52189836547257,-910.1498177189063 A990.0,990.0,0,0,0,-389.52189836547257,-910.1498177189063 C-155.80875934618905,-364.0599270875625,355.0976988823618,-175.2758518691367,887.7442472059043,-438.1896296728417 Z" fill="url(#d4)" fill-opacity="0.6" />
<path d="M892.7782649003664,-427.8398879504941 A990.0,990.0,0,0,0,887.7442472059043,-438.1896296728417 C355.0976988823618,-175.2758518691367,-198.18577678829072,-342.8387345076717,-495.4644419707268,-857.0968362691792 A990.0,990.0,0,0,0,-525.0493136899174,-839.2992423407438 C-210.019725475967,-335.71969693629757,357.1113059601466,-171.13595518019764,892.7782649003664,-427.8398879504941 Z" fill="url(#d5)" fill-opacity="0.6" />
<path d="M897.6916254588526,-417.43232455218765 A990.0,990.0,0,0,0,892.7782649003664,-427.8398879504941 C357.1113059601466,-171.13595518019764,334.45386526248103,212.0297432224692,836.1346631562025,530.074358056173 A990.0,990.0,0,0,0,842.24033911275,520.3183748160734 C336.8961356451,208.12734992642936,359.07665018354106,-166.97292982087507,897.6916254588526,-417.43232455218765 Z" fill="url(#d6)" fill-opacity="0.6" />
<path d="M902.4836648508463,-406.9683460385897 A990.0,990.0,0,0,0,897.6916254588526,-417.43232455218765 C359.07665018354106,-166.97292982087507,395.9208026399648,7.919472010563344,989.8020065999119,19.79868002640836 A990.0,990.0,0,0,0,989.8020065999119,19.79868002640836 C395.9208026399648,7.919472010563344,360.9934659403385,-162.7873384154359,902.4836648508463,-406.9683460385897 Z" fill="url(#d7)" fill-opacity="0.6" />
<path d="M868.7407304260261,-474.7520861448159 A990.0,990.0,0,0,0,857.4685693020691,-494.82082884521225 C342.98742772082767,-197.9283315380849,-307.28963915332594,249.77805682048768,-768.2240978833148,624.4451420512191 A990.0,990.0,0,0,0,-760.9129375553009,633.3336415041938 C-304.36517502212035,253.33345660167754,347.49629217041047,-189.90083445792638,868.7407304260261,-474.7520861448159 Z" fill="url(#d8)" fill-opacity="0.6" />
<path d="M852.477570412155,-503.3706307922517 A990.0,990.0,0,0,0,840.5444620579227,-523.0535415268282 C336.2177848231691,-209.2214166107313,325.34088754572,-225.7638298996613,813.3522188643,-564.4095747491532 A990.0,990.0,0,0,0,813.3522188643,-564.4095747491532 C325.34088754572,-225.7638298996613,340.99102816486203,-201.3482523169007,852.477570412155,-503.3706307922517 Z" fill="url(#d9)" fill-opacity="0.6" />
<path d="M401.6596052452828,-904.8588627593828 A990.0,990.0,0,0,0,-371.2422137370192,-917.7577124381125 C-148.49688549480769,-367.10308497524505,-290.8204716554147,-268.7739817506936,-727.0511791385367,-671.934954376734 A990.0,990.0,0,0,0,-890.8419846890554,431.85710404630936 C-356.33679387562216,172.74284161852376,160.66384209811315,-361.94354510375314,401.6596052452828,-904.8588627593828 Z" fill="url(#d10)" fill-opacity="0.6" />
<path d="M503.904948873227,-852.1618405567516 A990.0,990.0,0,0,0,401.6596052452828,-904.8588627593828 C160.66384209811315,-361.94354510375314,-273.8573563634892,286.0387182980669,-684.643390908723,715.0967957451672 A990.0,990.0,0,0,0,-578.5560890699693,803.3510140654967 C-231.42243562798774,321.3404056261987,201.5619795492908,-340.8647362227007,503.904948873227,-852.1618405567516 Z" fill="url(#d11)" fill-opacity="0.6" />
<path d="M513.7773798573342,-846.2463021762237 A990.0,990.0,0,0,0,503.904948873227,-852.1618405567516 C201.5619795492908,-340.8647362227007,134.4419919254491,372.48000054649583,336.1049798136227,931.2000013662395 A990.0,990.0,0,0,0,346.9075776426672,927.2298164824603 C138.76303105706688,370.89192659298413,205.51095194293367,-338.49852087048953,513.7773798573342,-846.2463021762237 Z" fill="url(#d12)" fill-opacity="0.6" />
<path d="M542.9727672533409,-827.816751474171 A990.0,990.0,0,0,0,513.7773798573342,-846.2463021762237 C205.51095194293367,-338.49852087048953,348.11177694543113,188.77020620822134,870.2794423635778,471.9255155205533 A990.0,990.0,0,0,0,886.2058194908025,441.2926982181273 C354.482327796321,176.51707928725094,217.18910690133634,-331.1267005896684,542.9727672533409,-827.816751474171 Z" fill="url(#d13)" fill-opacity="0.6" />
<path d="M-400.0761757354226,-905.5600773051555 A990.0,990.0,0,0,0,-431.40892221285486,-891.0591124247273 C-172.56356888514196,-356.423644969891,-313.0135891155913,242.56647136192544,-782.5339727889782,606.4161784048135 A990.0,990.0,0,0,0,-775.431434313411,615.4722501288308 C-310.17257372536443,246.1889000515323,-160.03047029416905,-362.2240309220622,-400.0761757354226,-905.5600773051555 Z" fill="url(#d14)" fill-opacity="0.6" />
<path d="M-389.52189836547257,-910.1498177189063 A990.0,990.0,0,0,0,-400.0761757354226,-905.5600773051555 C-160.03047029416905,-362.2240309220622,-58.73800655099292,391.6195176270145,-146.8450163774823,979.0487940675362 A990.0,990.0,0,0,0,-135.45353584684588,980.6897264816163 C-54.18141433873836,392.27589059264653,-155.80875934618905,-364.0599270875625,-389.52189836547257,-910.1498177189063 Z" fill="url(#d15)" fill-opacity="0.6" />
<path d="M-563.4963601822674,-813.9851669786965 A990.0,990.0,0,0,0,-720.2955893273486,-679.1717485257816 C-288.11823573093943,-271.6686994103126,307.60256858829075,249.39258168174513,769.0064214707268,623.4814542043628 A990.0,990.0,0,0,0,836.1346631562025,530.074358056173 C334.45386526248103,212.0297432224692,-225.39854407290696,-325.5940667914786,-563.4963601822674,-813.9851669786965 Z" fill="url(#d16)" fill-opacity="0.6" />
<path d="M-525.0493136899174,-839.2992423407438 A990.0,990.0,0,0,0,-563.4963601822674,-813.9851669786965 C-225.39854407290696,-325.5940667914786,395.12467716131476,26.31519519530104,987.8116929032868,65.7879879882526 A990.0,990.0,0,0,0,987.8116929032868,65.7879879882526 C395.12467716131476,26.31519519530104,-210.019725475967,-335.71969693629757,-525.0493136899174,-839.2992423407438 Z" fill="url(#d17)" fill-opacity="0.6" />
<path d="M-852.7891464003636,502.84259145555603 A990.0,990.0,0,0,0,-840.8682300407247,522.5328886378148 C-336.3472920162899,209.01315545512594,-325.4806416081212,225.56230167819663,-813.7016040203029,563.9057541954916 A990.0,990.0,0,0,0,-813.7016040203029,563.9057541954916 C-325.4806416081212,225.56230167819663,-341.11565856014545,201.13703658222244,-852.7891464003636,502.84259145555603 Z" fill="url(#d18)" fill-opacity="0.6" />
<path d="M-858.5771244509161,492.89483804316336 A990.0,990.0,0,0,0,-852.7891464003636,502.84259145555603 C-341.11565856014545,201.13703658222244,-32.58407026999285,394.6571656066062,-81.46017567498212,986.6429140165154 A990.0,990.0,0,0,0,-81.46017567498212,986.6429140165154 C-32.58407026999285,394.6571656066062,-343.4308497803665,197.15793521726536,-858.5771244509161,492.89483804316336 Z" fill="url(#d19)" fill-opacity="0.6" />
<path d="M-864.2490675788872,482.88047091285864 A990.0,990.0,0,0,0,-858.5771244509161,492.89483804316336 C-343.4308497803665,197.15793521726536,394.8417735259824,30.265060364335376,987.1044338149559,75.66265091083844 A990.0,990.0,0,0,0,987.1044338149559,75.66265091083844 C394.8417735259824,30.265060364335376,-345.6996270315549,193.15218836514347,-864.2490675788872,482.88047091285864 Z" fill="url(#d20)" fill-opacity="0.6" />
<path d="M-808.0219557210107,572.0144395666887 A990.0,990.0,0,0,0,-801.3176191902462,581.3691367584588 C-320.5270476760985,232.54765470338353,348.11177694543113,188.77020620822134,870.2794423635778,471.9255155205533 A990.0,990.0,0,0,0,870.2794423635778,471.9255155205533 C348.11177694543113,188.77020620822134,-323.20878228840434,228.80577582667547,-808.0219557210107,572.0144395666887 Z" fill="url(#d21)" fill-opacity="0.6" />
<path d="M-738.3664634205396,659.48083042333 A990.0,990.0,0,0,0,-722.834844108253,676.4686157856826 C-289.13393764330124,270.58744631427305,-81.38961582379375,387.5457785037211,-203.47403955948437,968.8644462593028 A990.0,990.0,0,0,0,-146.8450163774823,979.0487940675362 C-58.73800655099292,391.6195176270145,-295.34658536821587,263.792332169332,-738.3664634205396,659.48083042333 Z" fill="url(#d22)" fill-opacity="0.6" />
<path d="M-760.9129375553009,633.3336415041938 A990.0,990.0,0,0,0,-738.3664634205396,659.48083042333 C-295.34658536821587,263.792332169332,241.86086298241275,313.5591219489597,604.6521574560319,783.8978048723992 A990.0,990.0,0,0,0,769.0064214707268,623.4814542043628 C307.60256858829075,249.39258168174513,-304.36517502212035,253.33345660167754,-760.9129375553009,633.3336415041938 Z" fill="url(#d23)" fill-opacity="0.6" />
<path d="M-708.0380807905714,691.9408039351374 A990.0,990.0,0,0,0,-699.9463424453762,700.1250728957934 C-279.9785369781505,280.0500291583174,-85.2609395713118,386.7125187829031,-213.15234892827948,966.7812969572576 A990.0,990.0,0,0,0,-213.15234892827948,966.7812969572576 C-85.2609395713118,386.7125187829031,-283.21523231622854,276.776321574055,-708.0380807905714,691.9408039351374 Z" fill="url(#d24)" fill-opacity="0.6" />
<path d="M-716.0341292535768,683.6630206059649 A990.0,990.0,0,0,0,-708.0380807905714,691.9408039351374 C-283.21523231622854,276.776321574055,393.68735210765857,42.734866215544685,984.2183802691463,106.83716553886171 A990.0,990.0,0,0,0,985.3938673721015,95.38829144844337 C394.1575469488406,38.15531657937735,-286.41365170143075,273.465208242386,-716.0341292535768,683.6630206059649 Z" fill="url(#d25)" fill-opacity="0.6" />
<path d="M-578.5560890699693,803.3510140654967 A990.0,990.0,0,0,0,-569.1779435118882,810.0225111807558 C-227.6711774047553,324.00900447230237,-101.27949296019057,382.8295499379936,-253.1987324004764,957.073874844984 A990.0,990.0,0,0,0,-253.1987324004764,957.073874844984 C-101.27949296019057,382.8295499379936,-231.42243562798774,321.3404056261987,-578.5560890699693,803.3510140654967 Z" fill="url(#d26)" fill-opacity="0.6" />
<path d="M-452.44457785528317,880.5645370836567 A990.0,990.0,0,0,0,-421.4649754420335,895.8053775657111 C-168.58599017681343,358.3221510262845,-36.5289469602566,394.3115976407171,-91.32236740064148,985.7789941017927 A990.0,990.0,0,0,0,-91.32236740064148,985.7789941017927 C-36.5289469602566,394.3115976407171,-180.97783114211327,352.22581483346266,-452.44457785528317,880.5645370836567 Z" fill="url(#d27)" fill-opacity="0.6" />
<path d="M-472.79423769477177,869.8077999205454 A990.0,990.0,0,0,0,-452.44457785528317,880.5645370836567 C-180.97783114211327,352.22581483346266,142.4649504142495,369.4857749676778,356.16237603562377,923.7144374191945 A990.0,990.0,0,0,0,366.8765979436607,919.5115887694324 C146.7506391774643,367.80463550777296,-189.1176950779087,347.9231199682182,-472.79423769477177,869.8077999205454 Z" fill="url(#d28)" fill-opacity="0.6" />
<path d="M-492.8883175164374,858.5808677438692 A990.0,990.0,0,0,0,-472.79423769477177,869.8077999205454 C-189.1176950779087,347.9231199682182,395.12467716131476,26.31519519530104,987.8116929032868,65.7879879882526 A990.0,990.0,0,0,0,987.8116929032868,65.7879879882526 C395.12467716131476,26.31519519530104,-197.15532700657496,343.43234709754773,-492.8883175164374,858.5808677438692 Z" fill="url(#d29)" fill-opacity="0.6" />
<path d="M-295.8791867930837,944.7515582536308 A990.0,990.0,0,0,0,-262.7566518062902,954.4940764255941 C-105.10266072251609,381.7976305702377,359.88656137636633,165.22004400403398,899.7164034409158,413.0501100100849 A990.0,990.0,0,0,0,968.352733990466,205.89556229600865 C387.34109359618645,82.35822491840347,-118.3516747172335,377.90062330145236,-295.8791867930837,944.7515582536308 Z" fill="url(#d30)" fill-opacity="0.6" />
<path d="M-135.45353584684588,980.6897264816163 A990.0,990.0,0,0,0,-101.1754269656625,984.8164971091396 C-40.470170786265,393.9265988436559,234.5056603333888,319.09731316888474,586.264150833472,797.7432829222118 A990.0,990.0,0,0,0,604.6521574560319,783.8978048723992 C241.86086298241275,313.5591219489597,-54.18141433873836,392.27589059264653,-135.45353584684588,980.6897264816163 Z" fill="url(#d31)" fill-opacity="0.6" />
<path d="M-71.58983799963853,987.4081704620362 A990.0,990.0,0,0,0,-60.10626402395812,988.173687681008 C-24.042505609583248,395.2694750724032,142.4649504142495,369.4857749676778,356.16237603562377,923.7144374191945 A990.0,990.0,0,0,0,356.16237603562377,923.7144374191945 C142.4649504142495,369.4857749676778,-28.635935199855414,394.9632681848145,-71.58983799963853,987.4081704620362 Z" fill="url(#d32)" fill-opacity="0.6" />
<path d="M38.60171568803138,989.247141793162 A990.0,990.0,0,0,0,287.60498676602083,947.3032099530312 C115.04199470640833,378.9212839812125,150.42128676126288,366.3187634957919,376.0532169031572,915.7969087394798 A990.0,990.0,0,0,0,586.264150833472,797.7432829222118 C234.5056603333888,319.09731316888474,15.440686275212554,395.6988567172648,38.60171568803138,989.247141793162 Z" fill="url(#d33)" fill-opacity="0.6" />
<path d="M27.098992592119647,989.6290439353992 A990.0,990.0,0,0,0,38.60171568803138,989.247141793162 C15.440686275212554,395.6988567172648,393.2403263643757,46.669537396885936,983.1008159109391,116.67384349221483 A990.0,990.0,0,0,0,983.1008159109391,116.67384349221483 C393.2403263643757,46.669537396885936,10.83959703684786,395.8516175741597,27.098992592119647,989.6290439353992 Z" fill="url(#d34)" fill-opacity="0.6" />
<path d="M842.24033911275,520.3183748160734 A990.0,990.0,0,0,0,848.2321880294651,510.4920716237875 C339.29287521178605,204.19682864951503,394.5193860423311,34.21189905255408,986.2984651058277,85.52974763138519 A990.0,990.0,0,0,0,986.2984651058277,85.52974763138519 C394.5193860423311,34.21189905255408,336.8961356451,208.12734992642936,842.24033911275,520.3183748160734 Z" fill="url(#d35)" fill-opacity="0.6" />
<text x="1100.0000000000002" y="0" font-size="10" text-anchor="start" dominant-baseline="middle" transform="rotate(-0.333043)" font-family="Arial">Arbaiungo koba</text>
<text x="1100.0" y="0" font-size="10" text-anchor="start" dominant-baseline="middle" transform="rotate(-1.239043)" font-family="Arial">Argentine - Carrière chez Perrauque Nord Ouest (grande)</text>
<text x="1100.0" y="0" font-size="10" text-anchor="start" dominant-baseline="middle" transform="rotate(-12.469364)" font-family="Arial">Barrage de l'Aigle</text>
<text x="1100.0000000000002" y="0" font-size="10" text-anchor="start" dominant-baseline="middle" transform="rotate(-23.699685)" font-family="Arial">Bois de l'Héraudière</text>
<text x="1100.0" y="0" font-size="10" text-anchor="start" dominant-baseline="middle" transform="rotate(-25.604813)" font-family="Arial">Carrière Larrivaux</text>
<text x="1100.0" y="0" font-size="10" text-anchor="start" dominant-baseline="middle" transform="rotate(-27.509941)" font-family="Arial">Carrière de Cantegrit/Matard</text>
<text x="1100.0" y="0" font-size="10" text-anchor="start" dominant-baseline="middle" transform="rotate(-28.082899)" font-family="Arial">Carrière de Fief de Foye (principale)</text>
<text x="1100.0" y="0" font-size="10" text-anchor="start" dominant-baseline="middle" transform="rotate(-29.321942)" font-family="Arial">Carrière de Jovelle n°2</text>
<text x="1100.0" y="0" font-size="10" text-anchor="start" dominant-baseline="middle" transform="rotate(-31.227070)" font-family="Arial">Carrière de Pech de Treil</text>
<text x="1100.0" y="0" font-size="10" text-anchor="start" dominant-baseline="middle" transform="rotate(-32.466113)" font-family="Arial">Carrière de l'Enfer</text>
<text x="1100.0" y="0" font-size="10" text-anchor="start" dominant-baseline="middle" transform="rotate(-33.039071)" font-family="Arial">Carrière de la Boye</text>
<text x="1100.0000000000002" y="0" font-size="10" text-anchor="start" dominant-baseline="middle" transform="rotate(-33.612029)" font-family="Arial">Carrière de la Roche</text>
<text x="1100.0" y="0" font-size="10" text-anchor="start" dominant-baseline="middle" transform="rotate(-34.184986)" font-family="Arial">Caves de Laubenheimer</text>
<text x="1100.0" y="0" font-size="10" text-anchor="start" dominant-baseline="middle" transform="rotate(-73.390886)" font-family="Arial">Centrale hydroélectrique de Claredent</text>
<text x="-1100.0" y="0" font-size="10" text-anchor="end" dominant-baseline="middle" transform="rotate(67.403215)" font-family="Arial">Château Larrivaux</text>
<text x="-1100.0" y="0" font-size="10" text-anchor="end" dominant-baseline="middle" transform="rotate(65.498087)" font-family="Arial">Château de Verteuil</text>
<text x="-1100.0" y="0" font-size="10" text-anchor="end" dominant-baseline="middle" transform="rotate(63.592959)" font-family="Arial">Colin</text>
<text x="-1100.0" y="0" font-size="10" text-anchor="end" dominant-baseline="middle" transform="rotate(63.020001)" font-family="Arial">Cueva de Espoz</text>
<text x="-1100.0000000000002" y="0" font-size="10" text-anchor="end" dominant-baseline="middle" transform="rotate(62.447044)" font-family="Arial">Cueva de Santa Isabel</text>
<text x="-1100.0000000000002" y="0" font-size="10" text-anchor="end" dominant-baseline="middle" transform="rotate(61.874086)" font-family="Arial">Cueva de las Güixas</text>
<text x="-1100.0" y="0" font-size="10" text-anchor="end" dominant-baseline="middle" transform="rotate(52.308978)" font-family="Arial">Goizet (W)</text>
<text x="-1100.0" y="0" font-size="10" text-anchor="end" dominant-baseline="middle" transform="rotate(5.443099)" font-family="Arial">Gouffre de la Fage</text>
<text x="-1100.0" y="0" font-size="10" text-anchor="end" dominant-baseline="middle" transform="rotate(-32.430630)" font-family="Arial">Grotte aux fées (Casteljaloux)</text>
<text x="-1100.0000000000002" y="0" font-size="10" text-anchor="end" dominant-baseline="middle" transform="rotate(-33.003587)" font-family="Arial">Grotte d'Espalungue</text>
<text x="-1100.0" y="0" font-size="10" text-anchor="end" dominant-baseline="middle" transform="rotate(-33.576545)" font-family="Arial">Grotte de Baume Sourde</text>
<text x="-1100.0000000000002" y="0" font-size="10" text-anchor="end" dominant-baseline="middle" transform="rotate(-34.149503)" font-family="Arial">Grotte de Brasselay</text>
<text x="-1100.0" y="0" font-size="10" text-anchor="end" dominant-baseline="middle" transform="rotate(-34.722461)" font-family="Arial">Grotte de Ganos</text>
<text x="-1100.0" y="0" font-size="10" text-anchor="end" dominant-baseline="middle" transform="rotate(-35.628461)" font-family="Arial">Grotte de Grosbot</text>
<text x="-1100.0000000000002" y="0" font-size="10" text-anchor="end" dominant-baseline="middle" transform="rotate(-36.867504)" font-family="Arial">Grotte de Meysset</text>
<text x="-1100.0" y="0" font-size="10" text-anchor="end" dominant-baseline="middle" transform="rotate(-40.437845)" font-family="Arial">Grotte de Rancogne</text>
<text x="-1100.0" y="0" font-size="10" text-anchor="end" dominant-baseline="middle" transform="rotate(-44.341229)" font-family="Arial">Grotte de Tourtouse</text>
<text x="-1100.0000000000002" y="0" font-size="10" text-anchor="end" dominant-baseline="middle" transform="rotate(-50.242868)" font-family="Arial">Grotte de Vieil Mouly</text>
<text x="-1100.0" y="0" font-size="10" text-anchor="end" dominant-baseline="middle" transform="rotate(-60.141019)" font-family="Arial">Grotte de la carrière d'Ainhoa</text>
<text x="-1100.0" y="0" font-size="10" text-anchor="end" dominant-baseline="middle" transform="rotate(-65.376573)" font-family="Arial">Grotte des Piaroux</text>
<text x="-1100.0" y="0" font-size="10" text-anchor="end" dominant-baseline="middle" transform="rotate(-70.279085)" font-family="Arial">Grotte des Sadoux</text>
<text x="-1100.0000000000002" y="0" font-size="10" text-anchor="end" dominant-baseline="middle" transform="rotate(-75.181596)" font-family="Arial">Grotte du Rajol</text>
<text x="-1100.0" y="0" font-size="10" text-anchor="end" dominant-baseline="middle" transform="rotate(-76.087597)" font-family="Arial">Grotte du Roc</text>
<text x="-1100.0" y="0" font-size="10" text-anchor="end" dominant-baseline="middle" transform="rotate(-76.993597)" font-family="Arial">Grotte du Roy</text>
<text x="-1100.0000000000002" y="0" font-size="10" text-anchor="end" dominant-baseline="middle" transform="rotate(-77.566555)" font-family="Arial">Grotte du Sendé</text>
<text x="-1100.0" y="0" font-size="10" text-anchor="end" dominant-baseline="middle" transform="rotate(-81.136896)" font-family="Arial">Grottes de Loubeau</text>
<text x="-1100.0000000000002" y="0" font-size="10" text-anchor="end" dominant-baseline="middle" transform="rotate(-84.707237)" font-family="Arial">Grottes de Sare</text>
<text x="-1100.0" y="0" font-size="10" text-anchor="end" dominant-baseline="middle" transform="rotate(-85.280195)" font-family="Arial">Igue du Caillon</text>
<text x="-1100.0" y="0" font-size="10" text-anchor="end" dominant-baseline="middle" transform="rotate(-86.186195)" font-family="Arial">Iritegi</text>
<text x="-1100.0" y="0" font-size="10" text-anchor="end" dominant-baseline="middle" transform="rotate(-87.092196)" font-family="Arial">L'Eden</text>
<text x="-1100.0000000000002" y="0" font-size="10" text-anchor="end" dominant-baseline="middle" transform="rotate(-87.998196)" font-family="Arial">La Gravelle</text>
<text x="1100.0" y="0" font-size="10" text-anchor="start" dominant-baseline="middle" transform="rotate(-277.896347)" font-family="Arial">La Roche</text>
<text x="1100.0" y="0" font-size="10" text-anchor="start" dominant-baseline="middle" transform="rotate(-287.461454)" font-family="Arial">Maison Brousse</text>
<text x="1100.0000000000002" y="0" font-size="10" text-anchor="start" dominant-baseline="middle" transform="rotate(-288.034412)" font-family="Arial">Mikelauenziloa</text>
<text x="1100.0000000000002" y="0" font-size="10" text-anchor="start" dominant-baseline="middle" transform="rotate(-288.940413)" font-family="Arial">Montgaudier</text>
<text x="1100.0" y="0" font-size="10" text-anchor="start" dominant-baseline="middle" transform="rotate(-290.179456)" font-family="Arial">Pech de Lavayssière</text>
<text x="1100.0" y="0" font-size="10" text-anchor="start" dominant-baseline="middle" transform="rotate(-291.418499)" font-family="Arial">Portillo del Gesal</text>
<text x="1100.0" y="0" font-size="10" text-anchor="start" dominant-baseline="middle" transform="rotate(-310.641842)" font-family="Arial">Saint-Même-les-Carrières-Le bourg</text>
<text x="1100.0000000000002" y="0" font-size="10" text-anchor="start" dominant-baseline="middle" transform="rotate(-331.863441)" font-family="Arial">Tunnel d'Autrevialle</text>
<text x="1100.0" y="0" font-size="10" text-anchor="start" dominant-baseline="middle" transform="rotate(-334.767697)" font-family="Arial">Tunnel de Pomiro</text>
<text x="1100.0" y="0" font-size="10" text-anchor="start" dominant-baseline="middle" transform="rotate(-343.666719)" font-family="Arial">Tunnel de la Borie</text>
<text x="1100.0" y="0" font-size="10" text-anchor="start" dominant-baseline="middle" transform="rotate(-352.898785)" font-family="Arial">Tunnel ferroviaire</text>
<text x="1100.0" y="0" font-size="10" text-anchor="start" dominant-baseline="middle" transform="rotate(-354.137828)" font-family="Arial">Usine Brusson</text>
<text x="1100.0000000000002" y="0" font-size="10" text-anchor="start" dominant-baseline="middle" transform="rotate(-355.043828)" font-family="Arial">Viaduc de Lessac</text>
<text x="1100.0000000000002" y="0" font-size="10" text-anchor="start" dominant-baseline="middle" transform="rotate(-355.616786)" font-family="Arial">Viaduc de Rouchat</text>
<text x="1100.0" y="0" font-size="10" text-anchor="start" dominant-baseline="middle" transform="rotate(-357.521914)" font-family="Arial">la Lustre</text>
<text x="1100.0" y="0" font-size="10" text-anchor="start" dominant-baseline="middle" transform="rotate(-359.427042)" font-family="Arial">le Cluzel - Grotte de Perpezac</text>
</svg>